<svg width="100" height="100" viewBox="0 0 100 100" fill="none" xmlns="http://www.w3.org/2000/svg">
<path fill-rule="evenodd" clip-rule="evenodd" d="M50 97C75.9574 97 97 75.9574 97 50C97 24.0426 75.9574 3 50 3C24.0426 3 3 24.0426 3 50C3 75.9574 24.0426 97 50 97ZM50 100C77.6142 100 100 77.6142 100 50C100 22.3858 77.6142 0 50 0C22.3858 0 0 22.3858 0 50C0 77.6142 22.3858 100 50 100Z" fill="#BABBBD"/>
<path fill-rule="evenodd" clip-rule="evenodd" d="M27.8083 46.2386L29.6643 43.8817L50.0001 59.8946L70.3359 43.8817L72.1918 46.2386L50.0001 63.713L27.8083 46.2386Z" fill="#191919"/>
</svg>
