<svg width="22" height="25" viewBox="0 0 22 25" fill="none" xmlns="http://www.w3.org/2000/svg">
<path fill-rule="evenodd" clip-rule="evenodd" d="M1.15552 3.90544C1.15552 2.16082 2.5708 0.745544 4.31541 0.745544H14.3827L20.8446 7.20747V21.0945C20.8446 22.8391 19.4293 24.2544 17.6847 24.2544H4.31541C2.5708 24.2544 1.15552 22.8391 1.15552 21.0945V3.90544ZM4.31541 3.24554C3.95151 3.24554 3.65552 3.54153 3.65552 3.90544V21.0945C3.65552 21.4584 3.95151 21.7544 4.31541 21.7544H17.6847C18.0486 21.7544 18.3446 21.4584 18.3446 21.0945V8.243L13.3471 3.24554H4.31541Z" fill="#191919"/>
<path fill-rule="evenodd" clip-rule="evenodd" d="M12.615 1.99554H15.115V6.47524H19.5947V8.97524H12.615V1.99554Z" fill="#191919"/>
</svg>
