<svg width="22" height="22" viewBox="0 0 22 22" fill="none" xmlns="http://www.w3.org/2000/svg">
<path fill-rule="evenodd" clip-rule="evenodd" d="M3.09406 4.10706C2.90348 4.10706 2.74818 4.26237 2.74818 4.45295V18.6835C2.74818 18.8741 2.90348 19.0294 3.09406 19.0294H18.9058C19.0964 19.0294 19.2517 18.8741 19.2517 18.6835V4.45295C19.2517 4.26237 19.0964 4.10706 18.9058 4.10706H3.09406ZM0.277588 4.45295C0.277588 2.8979 1.53902 1.63647 3.09406 1.63647H18.9058C20.4609 1.63647 21.7223 2.8979 21.7223 4.45295V18.6835C21.7223 20.2386 20.4609 21.5 18.9058 21.5H3.09406C1.53902 21.5 0.277588 20.2386 0.277588 18.6835V4.45295Z" fill="#191919"/>
<path fill-rule="evenodd" clip-rule="evenodd" d="M7.5265 0.5V5.24353H5.05591V0.5H7.5265Z" fill="#191919"/>
<path fill-rule="evenodd" clip-rule="evenodd" d="M14.5781 5.24353V0.5H17.0487V5.24353H14.5781Z" fill="#191919"/>
<path fill-rule="evenodd" clip-rule="evenodd" d="M20.4871 9.96906H1.51294V7.49847H20.4871V9.96906Z" fill="#191919"/>
</svg>
