<svg width="25" height="22" viewBox="0 0 25 22" fill="none" xmlns="http://www.w3.org/2000/svg">
<path d="M17.1513 7.82726C18.1102 7.82726 18.8876 7.04986 18.8876 6.09089C18.8876 5.13193 18.1102 4.35453 17.1513 4.35453C16.1923 4.35453 15.4149 5.13193 15.4149 6.09089C15.4149 7.04986 16.1923 7.82726 17.1513 7.82726Z" fill="#191919" stroke="#191919" stroke-width="0.2"/>
<path d="M19.5285 20.0183H19.9936L19.6737 19.6808L14.5308 14.2536L16.367 12.186L22.1636 18.3032L22.4086 18.5617L22.5018 18.2179L23.0025 16.3705L23.0319 16.2621L22.9546 16.1806L16.4681 9.33404L16.3182 9.1758L16.1734 9.33875L13.124 12.7709L8.35171 7.73529L8.2018 7.57711L8.05704 7.74001L0.850498 15.8498L0.71758 15.9994L0.867227 16.1323L2.09123 17.2188L2.24075 17.3515L2.37353 17.202L8.24898 10.5872L17.1301 19.9559L17.1893 20.0183H17.2753H19.5285Z" fill="#191919" stroke="#191919" stroke-width="0.4"/>
<path fill-rule="evenodd" clip-rule="evenodd" d="M3.24232 3.25C3.0294 3.25 2.85596 3.42345 2.85596 3.63636V18.3636C2.85596 18.5766 3.0294 18.75 3.24232 18.75H21.2423C21.4552 18.75 21.6287 18.5766 21.6287 18.3636V3.63636C21.6287 3.42345 21.4552 3.25 21.2423 3.25H3.24232ZM0.355957 3.63636C0.355957 2.04273 1.64869 0.75 3.24232 0.75H21.2423C22.836 0.75 24.1287 2.04273 24.1287 3.63636V18.3636C24.1287 19.9573 22.836 21.25 21.2423 21.25H3.24232C1.64869 21.25 0.355957 19.9573 0.355957 18.3636V3.63636Z" fill="#191919"/>
</svg>
