<?xml version="1.0" standalone="no"?>
<!DOCTYPE svg PUBLIC "-//W3C//DTD SVG 1.1//EN" "http://www.w3.org/Graphics/SVG/1.1/DTD/svg11.dtd" >
<svg xmlns="http://www.w3.org/2000/svg" xmlns:xlink="http://www.w3.org/1999/xlink" version="1.1">
<metadata>
Created by FontForge 20190801 at Sun Mar 14 19:29:25 2021
 By Jimmy Wärting
Copyright 2015-2021 Indian Type Foundry. All rights reserved.
</metadata>
<defs>
<font id="Panchang-Bold" horiz-adv-x="874" >
  <font-face 
    font-family="Panchang"
    font-weight="700"
    font-stretch="normal"
    units-per-em="1000"
    panose-1="0 0 0 0 0 0 0 0 0 0"
    ascent="800"
    descent="-200"
    x-height="510"
    cap-height="682"
    bbox="-320 -260 2048 957"
    underline-thickness="50"
    underline-position="-100"
    stemh="200"
    stemv="270"
    unicode-range="U+000D-FB02"
  />
<missing-glyph horiz-adv-x="524" 
d="M54 0v666h416v-666h-416zM412 609h-300v-553h300v553z" />
    <glyph glyph-name="fi" unicode="fi" horiz-adv-x="907" 
d="M113 0v358h-101v152h101c6 179 136 254 353 254c101 0 211 -15 283 -28l-32 -140c-71 10 -164 21 -259 21c-115 0 -155 -28 -155 -105v-2h550v-510h-189v358h-361v-358h-190z" />
    <glyph glyph-name="fl" unicode="fl" horiz-adv-x="915" 
d="M113 0v358h-101v152h101c5 180 122 254 342 254c81 0 165 -6 234 -14h172v-750h-189v606c-62 6 -129 11 -212 11c-117 0 -157 -28 -157 -105v-2h280v-152h-280v-358h-190z" />
    <glyph glyph-name=".notdef" horiz-adv-x="524" 
d="M54 0v666h416v-666h-416zM412 609h-300v-553h300v553z" />
    <glyph glyph-name=".null" horiz-adv-x="0" 
 />
    <glyph glyph-name="CR" unicode="&#xd;" horiz-adv-x="0" 
 />
    <glyph glyph-name="space" unicode=" " horiz-adv-x="275" 
 />
    <glyph glyph-name="nbspace" unicode="&#xa0;" horiz-adv-x="275" 
 />
    <glyph glyph-name="A" unicode="A" horiz-adv-x="1136" 
d="M901 0l-82 132h-504l-83 -132h-244l445 682h270l444 -682h-246zM403 273h327l-163 262z" />
    <glyph glyph-name="B" unicode="B" horiz-adv-x="1080" 
d="M814 0h-760v682h759c137 0 211 -50 211 -167c0 -85 -39 -136 -115 -156c92 -21 140 -74 140 -177c0 -130 -79 -182 -235 -182zM756 529h-502v-120h507c45 0 75 18 75 60s-24 60 -80 60zM778 266h-524v-125h519c61 0 88 14 88 63c0 48 -32 62 -83 62z" />
    <glyph glyph-name="C" unicode="C" horiz-adv-x="1052" 
d="M237 340c0 -123 61 -179 318 -179c157 0 320 28 437 51l36 -169c-139 -32 -315 -56 -480 -56c-374 0 -514 124 -514 353s140 352 514 352c165 0 341 -24 480 -56l-36 -169c-117 23 -280 51 -437 51c-257 0 -318 -56 -318 -178z" />
    <glyph glyph-name="D" unicode="D" horiz-adv-x="1143" 
d="M718 0h-664v682h664c235 0 391 -81 391 -340c0 -267 -158 -342 -391 -342zM257 508v-334h442c141 0 200 33 200 168c0 133 -59 166 -200 166h-442z" />
    <glyph glyph-name="E" unicode="E" horiz-adv-x="1008" 
d="M964 0h-910v682h910v-159h-707v-113h688v-131h-688v-120h707v-159z" />
    <glyph glyph-name="F" unicode="F" horiz-adv-x="991" 
d="M257 0h-203v682h910v-174h-707v-125h688v-160h-688v-223z" />
    <glyph glyph-name="G" unicode="G" horiz-adv-x="1075" 
d="M34 340c0 229 147 352 539 352c159 0 323 -24 458 -56l-37 -169c-118 23 -276 51 -436 51c-259 0 -321 -55 -321 -178c0 -122 62 -178 321 -178c92 0 186 11 263 21v166h210v-305c-135 -32 -299 -56 -458 -56c-392 0 -539 123 -539 352z" />
    <glyph glyph-name="H" unicode="H" horiz-adv-x="1104" 
d="M257 0h-203v682h203v-246h590v246h203v-682h-203v263h-590v-263z" />
    <glyph glyph-name="I" unicode="I" horiz-adv-x="311" 
d="M257 0h-203v682h203v-682z" />
    <glyph glyph-name="J" unicode="J" horiz-adv-x="748" 
d="M276 159c188 0 225 46 225 146v377h203v-378c0 -196 -99 -319 -421 -319c-102 0 -200 14 -276 39l46 165c67 -20 157 -30 223 -30z" />
    <glyph glyph-name="K" unicode="K" horiz-adv-x="1089" 
d="M257 0h-203v682h203v-341l120 97l369 244h279l-411 -289l431 -393h-269l-320 292l-199 -131v-161z" />
    <glyph glyph-name="L" unicode="L" horiz-adv-x="954" 
d="M257 174h677v-174h-880v682h203v-508z" />
    <glyph glyph-name="M" unicode="M" horiz-adv-x="1413" 
d="M257 0h-203v682h247l408 -515l407 515h243v-682h-203v441l-347 -441h-205l-347 441v-441z" />
    <glyph glyph-name="N" unicode="N" horiz-adv-x="1129" 
d="M257 0h-203v682h232l586 -461v461h203v-682h-227l-591 469v-469z" />
    <glyph glyph-name="O" unicode="O" horiz-adv-x="1188" 
d="M594 -14c-391 0 -560 111 -560 355s169 355 560 355s560 -111 560 -355s-169 -355 -560 -355zM594 160c273 0 353 49 353 181s-80 181 -353 181c-274 0 -357 -49 -357 -181s83 -181 357 -181z" />
    <glyph glyph-name="P" unicode="P" horiz-adv-x="1048" 
d="M54 0v682h686c168 0 285 -60 285 -243c0 -193 -117 -264 -285 -264h-483v-175h-203zM717 508h-460v-160h460c65 0 98 22 98 80c0 62 -33 80 -98 80z" />
    <glyph glyph-name="Q" unicode="Q" horiz-adv-x="1188" 
d="M594 -14c-391 0 -560 111 -560 355s169 355 560 355s560 -111 560 -355c0 -182 -94 -290 -304 -333l194 -191h-237l-175 169h-38zM594 160c273 0 353 49 353 181s-80 181 -353 181c-274 0 -357 -49 -357 -181s83 -181 357 -181z" />
    <glyph glyph-name="R" unicode="R" horiz-adv-x="1057" 
d="M257 0h-203v682h683c168 0 285 -59 285 -238c0 -150 -89 -222 -240 -234l-44 -1l54 -33l224 -176h-255l-245 198h-259v-198zM257 508v-158h460c67 0 95 22 95 78c0 61 -28 80 -95 80h-460z" />
    <glyph glyph-name="S" unicode="S" horiz-adv-x="1012" 
d="M974 194c0 -144 -98 -207 -435 -207c-170 0 -367 24 -490 54l29 163c140 -31 310 -58 515 -58c160 0 189 13 189 54c0 42 -25 47 -78 52l-377 22c-212 10 -289 78 -289 205c0 153 134 215 450 215c121 0 318 -19 453 -48l-33 -153c-116 23 -296 42 -467 42
c-184 0 -211 -10 -211 -51c0 -38 26 -44 88 -48l372 -22c196 -11 284 -79 284 -220z" />
    <glyph glyph-name="T" unicode="T" horiz-adv-x="1054" 
d="M426 508h-405v174h1012v-174h-404v-508h-203v508z" />
    <glyph glyph-name="U" unicode="U" horiz-adv-x="1074" 
d="M827 361v321h203v-364c0 -233 -192 -329 -493 -329s-493 96 -493 329v364h203v-321c0 -146 88 -199 290 -199s290 53 290 199z" />
    <glyph glyph-name="V" unicode="V" horiz-adv-x="1167" 
d="M448 0l-441 682h247l332 -516l331 516h243l-441 -682h-271z" />
    <glyph glyph-name="W" unicode="W" horiz-adv-x="1645" 
d="M321 0l-304 682h229l211 -497l244 497h242l250 -497l206 497h229l-304 -682h-260l-241 485l-242 -485h-260z" />
    <glyph glyph-name="X" unicode="X" horiz-adv-x="1234" 
d="M31 682h305l285 -234l287 234h293l-420 -340l424 -342h-308l-280 231l-285 -231h-302l425 339z" />
    <glyph glyph-name="Y" unicode="Y" horiz-adv-x="1131" 
d="M463 253l-462 429h260l306 -276l306 276h256l-463 -430v-252h-203v253z" />
    <glyph glyph-name="Z" unicode="Z" horiz-adv-x="1090" 
d="M1044 174v-174h-997v159l451 251c83 38 227 85 298 104l-331 -14h-402v174h976v-160l-383 -226c-94 -46 -256 -101 -352 -129l343 15h397z" />
    <glyph glyph-name="AE" unicode="&#xc6;" horiz-adv-x="1795" 
d="M255 0h-267l774 682h989v-159h-675v-113h655l1 -131h-655v-120h674v-159h-877v132h-467zM874 540l-308 -267h308v267z" />
    <glyph glyph-name="OE" unicode="&#x152;" horiz-adv-x="1845" 
d="M34 341c0 244 169 355 560 355c79 0 148 -5 209 -14h998v-159h-724c45 -25 68 -59 73 -113h632v-131h-632c-2 -57 -26 -96 -73 -120h724v-159h-998c-61 -9 -130 -14 -209 -14c-391 0 -560 111 -560 355zM237 341c0 -132 83 -181 357 -181c273 0 353 49 353 181
s-80 181 -353 181c-274 0 -357 -49 -357 -181z" />
    <glyph glyph-name="Lslash" unicode="&#x141;" horiz-adv-x="1012" 
d="M10 291l102 40v351h203v-270l318 126v-113l-318 -126v-125h677v-174h-880v218l-102 -40v113z" />
    <glyph glyph-name="Oslash" unicode="&#xd8;" horiz-adv-x="1188" 
d="M250 -30h-171l108 90c-105 58 -153 150 -153 281c0 244 169 355 560 355c127 0 230 -12 312 -36l53 44h171l-111 -93c92 -58 135 -147 135 -270c0 -244 -169 -355 -560 -355c-115 0 -211 10 -289 30zM237 341c0 -76 28 -125 104 -152l393 327c-40 4 -86 6 -140 6
c-274 0 -357 -49 -357 -181zM594 160c273 0 353 49 353 181c0 69 -22 115 -80 143l-385 -320c33 -3 70 -4 112 -4z" />
    <glyph glyph-name="Eth" unicode="&#xd0;" horiz-adv-x="1177" 
d="M88 282h-78v117h78v283h665c234 0 390 -81 390 -340c0 -267 -158 -342 -390 -342h-665v282zM291 289v-115h442c142 0 200 33 200 168c0 133 -58 166 -200 166h-442v-116h256v-103h-256z" />
    <glyph glyph-name="Thorn" unicode="&#xde;" horiz-adv-x="1048" 
d="M257 0h-203v682h203v-98h483c168 0 285 -60 285 -243c0 -179 -117 -243 -285 -243h-483v-98zM257 421v-160h460c65 0 98 22 98 80c0 61 -33 80 -98 80h-460z" />
    <glyph glyph-name="a" unicode="a" horiz-adv-x="903" 
d="M856 487l-1 -1h1v-486h-166l-14 68c-100 -43 -218 -78 -340 -78c-181 0 -302 70 -302 260c0 205 157 270 386 270c176 0 323 -18 436 -33zM223 257c0 -81 41 -111 150 -111c87 0 187 19 294 50v159c-84 8 -182 13 -266 13c-118 0 -178 -31 -178 -111z" />
    <glyph glyph-name="b" unicode="b" horiz-adv-x="910" 
d="M54 0v750h189v-284c96 33 210 57 325 57c200 0 308 -82 308 -264s-121 -259 -327 -259h-495zM551 371c-90 0 -196 -23 -308 -55v-164h289c104 0 155 31 155 108c0 78 -40 111 -136 111z" />
    <glyph glyph-name="c" unicode="c" horiz-adv-x="849" 
d="M34 256c0 186 129 267 433 267c128 0 255 -17 348 -39l-38 -151c-74 15 -179 31 -338 31s-216 -24 -216 -108c0 -85 57 -108 216 -108s264 16 338 31l38 -151c-93 -22 -217 -39 -348 -39c-304 0 -433 82 -433 267z" />
    <glyph glyph-name="d" unicode="d" horiz-adv-x="910" 
d="M667 750h189v-750h-166l-13 70c-97 -43 -209 -80 -327 -80c-197 0 -316 67 -316 260c0 202 151 270 372 270c98 0 186 -11 261 -25v255zM223 253c0 -77 43 -107 157 -107c85 0 183 18 287 48v157c-85 9 -187 17 -273 17c-113 0 -171 -33 -171 -115z" />
    <glyph glyph-name="e" unicode="e" 
d="M467 135c152 0 262 16 323 26l38 -136c-95 -24 -247 -39 -378 -39c-290 0 -416 79 -416 269c0 189 142 268 404 268c243 0 402 -63 402 -229c0 -24 -3 -69 -5 -82h-614c17 -63 81 -77 246 -77zM431 397c-140 0 -196 -21 -211 -87h433c-11 61 -61 87 -222 87z" />
    <glyph glyph-name="f" unicode="f" horiz-adv-x="625" 
d="M303 0h-190v358h-101v152h101c6 179 137 254 353 254c95 0 183 -12 249 -23l-35 -140c-66 8 -132 16 -222 16c-115 0 -155 -28 -155 -105v-2h316v-152h-316v-358z" />
    <glyph glyph-name="g" unicode="g" horiz-adv-x="905" 
d="M863 486v-395c0 -202 -137 -286 -438 -286c-122 0 -254 16 -360 47l39 140c110 -27 220 -41 333 -41c196 0 251 50 246 141c-95 -31 -209 -52 -324 -52c-209 0 -325 64 -325 235c0 186 152 245 393 245c176 0 323 -18 436 -33l-1 -1h1zM223 275c0 -63 41 -90 150 -90
c88 0 193 8 301 30v140c-86 7 -187 13 -273 13c-118 0 -178 -25 -178 -93z" />
    <glyph glyph-name="h" unicode="h" horiz-adv-x="908" 
d="M54 0v750h189v-291c101 36 220 64 339 64c184 0 285 -70 285 -240v-283h-189v251c0 78 -52 115 -157 115c-78 0 -172 -16 -278 -45v-321h-189z" />
    <glyph glyph-name="i" unicode="i" horiz-adv-x="297" 
d="M243 731v-156h-189v156h189zM54 0v510h189v-510h-189z" />
    <glyph glyph-name="j" unicode="j" horiz-adv-x="297" 
d="M243 731v-156h-189v156h189zM153 -182h-196c31 42 97 144 97 281v411h189v-412c0 -153 -60 -241 -90 -280z" />
    <glyph glyph-name="k" unicode="k" horiz-adv-x="864" 
d="M243 750v-404h147l228 164h252l-321 -241l334 -269h-254l-242 192h-144v-192h-189v750h189z" />
    <glyph glyph-name="l" unicode="l" horiz-adv-x="297" 
d="M243 750v-750h-189v750h189z" />
    <glyph glyph-name="m" unicode="m" horiz-adv-x="1407" 
d="M54 0v509h166l11 -56c89 39 191 70 296 70c107 0 185 -25 231 -82c98 44 213 82 331 82c178 0 276 -70 276 -240v-283h-189v251c0 78 -50 115 -149 115c-68 0 -140 -15 -225 -41c1 -13 2 -27 2 -42v-283h-189v251c0 78 -50 115 -149 115c-68 0 -139 -16 -223 -42v-324
h-189z" />
    <glyph glyph-name="n" unicode="n" horiz-adv-x="908" 
d="M54 0v510h166l11 -61c104 41 227 74 351 74c184 0 285 -70 285 -240v-283h-189v251c0 78 -52 115 -157 115c-78 0 -172 -16 -278 -45v-321h-189z" />
    <glyph glyph-name="o" unicode="o" horiz-adv-x="962" 
d="M34 256c0 186 145 269 447 269c301 0 447 -83 447 -269s-146 -269 -447 -269c-302 0 -447 83 -447 269zM223 256c0 -79 54 -110 258 -110s258 31 258 110s-54 110 -258 110s-258 -31 -258 -110z" />
    <glyph glyph-name="p" unicode="p" horiz-adv-x="910" 
d="M243 -185h-189v695h166l13 -70c99 44 218 80 341 80c186 0 302 -72 302 -261c0 -198 -144 -269 -365 -269c-95 0 -188 12 -268 25v-200zM539 364c-80 0 -185 -19 -296 -50v-155c87 -9 191 -17 277 -17c113 0 167 32 167 114c0 77 -39 108 -148 108z" />
    <glyph glyph-name="q" unicode="q" horiz-adv-x="898" 
d="M856 487l-1 -1h1v-667h-189v245c-98 -41 -213 -74 -331 -74c-183 0 -302 70 -302 259c0 206 149 271 379 271c176 0 330 -17 443 -33zM223 257c0 -81 41 -111 150 -111c87 0 187 19 294 50v159c-87 7 -189 13 -273 13c-118 0 -171 -31 -171 -111z" />
    <glyph glyph-name="r" unicode="r" horiz-adv-x="634" 
d="M54 0v510h166l15 -87c104 54 234 100 375 100v-170c-143 0 -250 -17 -367 -59v-294h-189z" />
    <glyph glyph-name="s" unicode="s" horiz-adv-x="821" 
d="M798 145c0 -125 -113 -159 -363 -159c-155 0 -311 24 -391 44l32 122c89 -19 239 -40 393 -40c118 0 153 6 153 34c0 30 -28 34 -105 39l-249 14c-172 9 -234 56 -234 167c0 130 134 159 380 159c118 0 273 -20 352 -33l-28 -123c-105 19 -241 33 -368 33
c-126 0 -160 -6 -160 -34c0 -29 26 -32 78 -35l249 -15c171 -10 261 -51 261 -173z" />
    <glyph glyph-name="t" unicode="t" horiz-adv-x="758" 
d="M118 240v118h-109v152h114l33 132h152v-132h398v-152h-398v-98c0 -89 36 -114 156 -114c97 0 172 14 247 29l36 -150c-81 -20 -189 -39 -300 -39c-217 0 -329 67 -329 254z" />
    <glyph glyph-name="u" unicode="u" horiz-adv-x="904" 
d="M42 226v284h188v-252c0 -78 54 -115 161 -115c76 0 171 17 278 47v320h188v-510h-165l-11 61c-105 -41 -228 -75 -352 -75c-185 0 -287 70 -287 240z" />
    <glyph glyph-name="v" unicode="v" horiz-adv-x="963" 
d="M961 510l-375 -510h-236l-347 510h223l244 -361l269 361h222z" />
    <glyph glyph-name="w" unicode="w" horiz-adv-x="1363" 
d="M557 510h238l197 -356l168 356h200l-261 -510h-218l-209 373l-209 -373h-217l-243 510h197l164 -354z" />
    <glyph glyph-name="x" unicode="x" horiz-adv-x="977" 
d="M271 0h-265l351 259l-350 251h269l216 -156l211 156h265l-346 -251l353 -259h-269l-219 163z" />
    <glyph glyph-name="y" unicode="y" horiz-adv-x="925" 
d="M42 298v212h188v-183c0 -84 41 -115 182 -115c84 0 174 9 270 27v271h189v-397c0 -232 -130 -308 -417 -308c-129 0 -273 19 -374 47l33 144c118 -29 234 -45 354 -45c173 0 232 41 224 153l-2 5c-96 -28 -209 -52 -322 -52c-238 0 -325 73 -325 241z" />
    <glyph glyph-name="z" unicode="z" horiz-adv-x="862" 
d="M824 130v-130h-786v130l253 140c111 55 256 94 318 109h-561v131h776v-131l-225 -128c-132 -69 -275 -105 -329 -121h554z" />
    <glyph glyph-name="ae" unicode="&#xe6;" horiz-adv-x="1496" 
d="M1089 135c152 0 262 16 323 26l38 -136c-96 -24 -247 -39 -378 -39c-185 0 -303 32 -365 105c-94 -55 -236 -105 -409 -105c-164 0 -258 45 -258 155c0 115 105 158 333 158h278c-15 48 -71 69 -243 69c-119 0 -233 -16 -305 -32l-27 152c89 19 228 35 355 35
c160 0 261 -21 321 -68c68 47 172 68 308 68c243 0 402 -63 402 -229c0 -24 -3 -69 -5 -82h-614c17 -63 81 -77 246 -77zM1053 397c-140 0 -196 -21 -211 -87h433c-11 61 -61 87 -222 87zM221 160c0 -33 25 -42 105 -42c154 0 246 32 336 70c-1 5 -2 9 -2 14l-326 -2
c-81 0 -113 -6 -113 -40z" />
    <glyph glyph-name="oe" unicode="&#x153;" horiz-adv-x="1579" 
d="M34 256c0 186 145 269 447 269c160 0 277 -24 350 -74c68 50 174 72 313 72c243 0 401 -63 401 -229c0 -24 -2 -69 -4 -82h-614c17 -63 81 -77 246 -77c152 0 262 16 323 26l38 -136c-96 -24 -248 -39 -379 -39c-154 0 -261 22 -328 72c-74 -48 -189 -71 -346 -71
c-302 0 -447 83 -447 269zM1137 397c-140 0 -196 -21 -211 -87h433c-11 61 -61 87 -222 87zM223 256c0 -79 54 -110 258 -110s258 31 258 110s-54 110 -258 110s-258 -31 -258 -110z" />
    <glyph glyph-name="lslash" unicode="&#x142;" horiz-adv-x="352" 
d="M82 259l-72 -31v118l72 31v373h189v-297l71 30v-118l-71 -30v-335h-189v259z" />
    <glyph glyph-name="oslash" unicode="&#xf8;" horiz-adv-x="967" 
d="M34 256c0 186 145 269 447 269c83 0 154 -6 213 -19l49 42h167l-98 -85c78 -44 116 -112 116 -207c0 -186 -146 -269 -447 -269c-77 0 -145 5 -202 17l-48 -42h-168l95 82c-83 44 -124 113 -124 212zM223 256c0 -46 18 -76 74 -93l234 202c-16 1 -32 1 -50 1
c-204 0 -258 -31 -258 -110zM739 256c0 43 -16 72 -64 89l-230 -199h36c204 0 258 31 258 110z" />
    <glyph glyph-name="eth" unicode="&#xf0;" horiz-adv-x="955" 
d="M439 541h-173l209 90c-95 46 -200 78 -282 100h327c33 -8 69 -19 105 -35l95 41h172l-188 -81c114 -69 213 -179 213 -334c0 -221 -179 -332 -466 -332c-263 0 -417 67 -417 264c0 189 144 250 351 250c128 0 234 -26 316 -58c-32 57 -86 104 -150 144zM452 138
c176 0 265 48 277 166c-92 30 -219 57 -333 57c-117 0 -173 -35 -173 -107c0 -79 59 -116 229 -116z" />
    <glyph glyph-name="thorn" unicode="&#xfe;" horiz-adv-x="910" 
d="M243 -185h-189v935h189v-305c97 41 212 75 331 75c186 0 302 -72 302 -261c0 -198 -144 -269 -365 -269c-95 0 -188 12 -268 25v-200zM539 364c-80 0 -185 -19 -296 -50v-155c87 -9 191 -17 277 -17c113 0 167 32 167 114c0 77 -39 108 -148 108z" />
    <glyph glyph-name="germandbls" unicode="&#xdf;" horiz-adv-x="964" 
d="M614 -10c-117 -1 -244 17 -318 34l30 154c82 -16 181 -29 276 -29c106 0 143 17 143 84c0 58 -31 78 -106 78h-310v139h299c65 0 92 18 92 69c0 65 -34 82 -215 82c-195 0 -262 -28 -262 -136v-465h-189v444c0 237 172 316 462 316c268 0 392 -69 392 -212
c0 -93 -57 -141 -155 -160c112 -21 180 -72 180 -191c0 -134 -104 -207 -319 -207z" />
    <glyph glyph-name="dotlessi" unicode="&#x131;" horiz-adv-x="289" 
d="M54 0v510h189v-510h-189z" />
    <glyph glyph-name="dotlessj" unicode="&#x237;" horiz-adv-x="297" 
d="M153 -182h-196c31 42 97 144 97 281v411h189v-412c0 -153 -60 -241 -90 -280z" />
    <glyph glyph-name="Aacute" unicode="&#xc1;" horiz-adv-x="1136" 
d="M597 878h233l-184 -152h-181zM901 0l-82 132h-504l-83 -132h-244l445 682h270l444 -682h-246zM403 273h327l-163 262z" />
    <glyph glyph-name="Acircumflex" unicode="&#xc2;" horiz-adv-x="1136" 
d="M815 726h-170l-81 70l-81 -70h-170l165 153h171zM901 0l-82 132h-504l-83 -132h-244l445 682h270l444 -682h-246zM403 273h327l-163 262z" />
    <glyph glyph-name="Adieresis" unicode="&#xc4;" horiz-adv-x="1136" 
d="M516 882v-156h-166v156h166zM777 882v-156h-166v156h166zM901 0l-82 132h-504l-83 -132h-244l445 682h270l444 -682h-246zM403 273h327l-163 262z" />
    <glyph glyph-name="Agrave" unicode="&#xc0;" horiz-adv-x="1136" 
d="M489 726l-184 152h234l132 -152h-182zM901 0l-82 132h-504l-83 -132h-244l445 682h270l444 -682h-246zM403 273h327l-163 262z" />
    <glyph glyph-name="Aring" unicode="&#xc5;" horiz-adv-x="1136" 
d="M564 725c-106 0 -155 38 -155 113c0 71 49 109 155 109c105 0 154 -38 154 -109c0 -75 -49 -113 -154 -113zM495 837c0 -27 13 -42 69 -42c55 0 68 15 68 42c0 26 -13 40 -68 40c-56 0 -69 -14 -69 -40zM901 0l-82 132h-504l-83 -132h-244l445 682h270l444 -682h-246z
M403 273h327l-163 262z" />
    <glyph glyph-name="Atilde" unicode="&#xc3;" horiz-adv-x="1136" 
d="M364 730v105c25 14 63 31 106 31c82 0 148 -32 211 -32c41 0 64 14 92 31v-110c-20 -14 -48 -28 -89 -28c-73 0 -145 33 -217 33c-45 0 -74 -13 -103 -30zM901 0l-82 132h-504l-83 -132h-244l445 682h270l444 -682h-246zM403 273h327l-163 262z" />
    <glyph glyph-name="Abreve" unicode="&#x102;" horiz-adv-x="1136" 
d="M642 886h139c0 -104 -65 -160 -218 -160s-219 56 -219 160h139c0 -46 19 -65 80 -65s79 19 79 65zM901 0l-82 132h-504l-83 -132h-244l445 682h270l444 -682h-246zM403 273h327l-163 262z" />
    <glyph glyph-name="Amacron" unicode="&#x100;" horiz-adv-x="1136" 
d="M770 746h-410v116h410v-116zM901 0l-82 132h-504l-83 -132h-244l445 682h270l444 -682h-246zM403 273h327l-163 262z" />
    <glyph glyph-name="Aogonek" unicode="&#x104;" horiz-adv-x="1136" 
d="M890 0h11l-82 132h-504l-83 -132h-244l445 682h270l444 -682h-157c-51 -24 -116 -63 -116 -94c0 -16 13 -21 29 -21c28 0 72 12 105 26l28 -87c-43 -21 -93 -39 -156 -39c-77 0 -116 29 -116 83c0 53 63 110 126 132zM403 273h327l-163 262z" />
    <glyph glyph-name="Ccedilla" unicode="&#xc7;" horiz-adv-x="1052" 
d="M237 340c0 -123 61 -179 318 -179c157 0 320 28 437 51l36 -169c-139 -32 -315 -56 -480 -56c-374 0 -514 124 -514 353s140 352 514 352c165 0 341 -24 480 -56l-36 -169c-117 23 -280 51 -437 51c-257 0 -318 -56 -318 -178zM547 -41h114v-33
c0 -101 -38 -140 -156 -140c-47 0 -103 9 -134 18l22 98c31 -6 70 -12 100 -12c37 0 54 8 54 44v25z" />
    <glyph glyph-name="Cacute" unicode="&#x106;" horiz-adv-x="1052" 
d="M611 879h234l-184 -151h-182zM237 340c0 -123 61 -179 318 -179c157 0 320 28 437 51l36 -169c-139 -32 -315 -56 -480 -56c-374 0 -514 124 -514 353s140 352 514 352c165 0 341 -24 480 -56l-36 -169c-117 23 -280 51 -437 51c-257 0 -318 -56 -318 -178z" />
    <glyph glyph-name="Ccaron" unicode="&#x10c;" horiz-adv-x="1052" 
d="M830 881l-165 -153h-171l-166 153h170l81 -70l81 70h170zM237 340c0 -123 61 -179 318 -179c157 0 320 28 437 51l36 -169c-139 -32 -315 -56 -480 -56c-374 0 -514 124 -514 353s140 352 514 352c165 0 341 -24 480 -56l-36 -169c-117 23 -280 51 -437 51
c-257 0 -318 -56 -318 -178z" />
    <glyph glyph-name="Ccircumflex" unicode="&#x108;" horiz-adv-x="1052" 
d="M829 728h-170l-81 69l-81 -69h-170l166 153h171zM237 340c0 -123 61 -179 318 -179c157 0 320 28 437 51l36 -169c-139 -32 -315 -56 -480 -56c-374 0 -514 124 -514 353s140 352 514 352c165 0 341 -24 480 -56l-36 -169c-117 23 -280 51 -437 51
c-257 0 -318 -56 -318 -178z" />
    <glyph glyph-name="Cdotaccent" unicode="&#x10a;" horiz-adv-x="1052" 
d="M673 891v-156h-189v156h189zM237 340c0 -123 61 -179 318 -179c157 0 320 28 437 51l36 -169c-139 -32 -315 -56 -480 -56c-374 0 -514 124 -514 353s140 352 514 352c165 0 341 -24 480 -56l-36 -169c-117 23 -280 51 -437 51c-257 0 -318 -56 -318 -178z" />
    <glyph glyph-name="Dcaron" unicode="&#x10e;" horiz-adv-x="1143" 
d="M823 881l-165 -153h-172l-165 153h170l81 -70l81 70h170zM718 0h-664v682h664c235 0 391 -81 391 -340c0 -267 -158 -342 -391 -342zM257 508v-334h442c141 0 200 33 200 168c0 133 -59 166 -200 166h-442z" />
    <glyph glyph-name="Dcroat" unicode="&#x110;" horiz-adv-x="1177" 
d="M88 282h-78v117h78v283h665c234 0 390 -81 390 -340c0 -267 -158 -342 -390 -342h-665v282zM291 289v-115h442c142 0 200 33 200 168c0 133 -58 166 -200 166h-442v-116h256v-103h-256z" />
    <glyph glyph-name="Eacute" unicode="&#xc9;" horiz-adv-x="1008" 
d="M586 879h234l-185 -151h-181zM964 0h-910v682h910v-159h-707v-113h688v-131h-688v-120h707v-159z" />
    <glyph glyph-name="Ecircumflex" unicode="&#xca;" horiz-adv-x="1008" 
d="M804 728h-170l-81 69l-81 -69h-170l165 153h171zM964 0h-910v682h910v-159h-707v-113h688v-131h-688v-120h707v-159z" />
    <glyph glyph-name="Edieresis" unicode="&#xcb;" horiz-adv-x="1008" 
d="M505 883v-155h-166v155h166zM766 883v-155h-165v155h165zM964 0h-910v682h910v-159h-707v-113h688v-131h-688v-120h707v-159z" />
    <glyph glyph-name="Egrave" unicode="&#xc8;" horiz-adv-x="1008" 
d="M478 728l-184 151h234l132 -151h-182zM964 0h-910v682h910v-159h-707v-113h688v-131h-688v-120h707v-159z" />
    <glyph glyph-name="Ebreve" unicode="&#x114;" horiz-adv-x="1008" 
d="M631 887h139c0 -103 -65 -160 -218 -160s-219 57 -219 160h139c0 -46 19 -65 80 -65s79 19 79 65zM964 0h-910v682h910v-159h-707v-113h688v-131h-688v-120h707v-159z" />
    <glyph glyph-name="Ecaron" unicode="&#x11a;" horiz-adv-x="1008" 
d="M805 881l-166 -153h-171l-165 153h170l81 -70l81 70h170zM964 0h-910v682h910v-159h-707v-113h688v-131h-688v-120h707v-159z" />
    <glyph glyph-name="Edotaccent" unicode="&#x116;" horiz-adv-x="1008" 
d="M647 891v-156h-188v156h188zM964 0h-910v682h910v-159h-707v-113h688v-131h-688v-120h707v-159z" />
    <glyph glyph-name="Emacron" unicode="&#x112;" horiz-adv-x="1008" 
d="M759 748h-410v115h410v-115zM964 0h-910v682h910v-159h-707v-113h688v-131h-688v-120h707v-159z" />
    <glyph glyph-name="Eogonek" unicode="&#x118;" horiz-adv-x="1008" 
d="M864 0h-810v682h910v-159h-707v-113h688v-131h-688v-120h707v-159c-51 -24 -116 -63 -116 -94c0 -16 13 -21 29 -21c28 0 72 12 105 26l27 -87c-42 -21 -92 -39 -156 -39c-76 0 -115 29 -115 83c0 53 63 110 126 132z" />
    <glyph glyph-name="Gbreve" unicode="&#x11e;" horiz-adv-x="1075" 
d="M665 887h139c0 -103 -64 -160 -218 -160c-153 0 -219 57 -219 160h139c0 -46 19 -65 80 -65s79 19 79 65zM34 340c0 229 147 352 539 352c159 0 323 -24 458 -56l-37 -169c-118 23 -276 51 -436 51c-259 0 -321 -55 -321 -178c0 -122 62 -178 321 -178
c92 0 186 11 263 21v166h210v-305c-135 -32 -299 -56 -458 -56c-392 0 -539 123 -539 352z" />
    <glyph glyph-name="Gcircumflex" unicode="&#x11c;" horiz-adv-x="1075" 
d="M838 728h-170l-81 69l-81 -69h-170l166 153h171zM34 340c0 229 147 352 539 352c159 0 323 -24 458 -56l-37 -169c-118 23 -276 51 -436 51c-259 0 -321 -55 -321 -178c0 -122 62 -178 321 -178c92 0 186 11 263 21v166h210v-305c-135 -32 -299 -56 -458 -56
c-392 0 -539 123 -539 352z" />
    <glyph glyph-name="Gcommaaccent" unicode="&#x122;" horiz-adv-x="1075" 
d="M34 340c0 229 147 352 539 352c159 0 323 -24 458 -56l-37 -169c-118 23 -276 51 -436 51c-259 0 -321 -55 -321 -178c0 -122 62 -178 321 -178c92 0 186 11 263 21v166h210v-305c-135 -32 -299 -56 -458 -56c-392 0 -539 123 -539 352zM487 -57h190l-136 -152h-151z" />
    <glyph glyph-name="Gdotaccent" unicode="&#x120;" horiz-adv-x="1075" 
d="M682 891v-156h-189v156h189zM34 340c0 229 147 352 539 352c159 0 323 -24 458 -56l-37 -169c-118 23 -276 51 -436 51c-259 0 -321 -55 -321 -178c0 -122 62 -178 321 -178c92 0 186 11 263 21v166h210v-305c-135 -32 -299 -56 -458 -56c-392 0 -539 123 -539 352z" />
    <glyph glyph-name="Hbar" unicode="&#x126;" horiz-adv-x="1167" 
d="M86 470h-74v121h74v91h203v-95h589v95h203v-91h74v-121h-74v-470h-203v227h-589v-227h-203v470zM289 474v-88h589v88h-589z" />
    <glyph glyph-name="Hcircumflex" unicode="&#x124;" horiz-adv-x="1104" 
d="M803 728h-170l-81 69l-81 -69h-170l166 153h171zM257 0h-203v682h203v-246h590v246h203v-682h-203v263h-590v-263z" />
    <glyph glyph-name="Iacute" unicode="&#xcd;" horiz-adv-x="311" 
d="M188 878h234l-184 -152h-182zM257 0h-203v682h203v-682z" />
    <glyph glyph-name="Icircumflex" unicode="&#xce;" horiz-adv-x="311" 
d="M406 726h-170l-81 70l-81 -70h-170l166 153h171zM257 0h-203v682h203v-682z" />
    <glyph glyph-name="Idieresis" unicode="&#xcf;" horiz-adv-x="311" 
d="M107 882v-156h-165v156h165zM368 882v-156h-165v156h165zM257 0h-203v682h203v-682z" />
    <glyph glyph-name="Igrave" unicode="&#xcc;" horiz-adv-x="311" 
d="M81 726l-185 152h234l132 -152h-181zM257 0h-203v682h203v-682z" />
    <glyph glyph-name="Ibreve" unicode="&#x12c;" horiz-adv-x="311" 
d="M234 886h138c0 -104 -64 -160 -218 -160c-153 0 -219 56 -219 160h139c0 -46 20 -65 80 -65c61 0 80 19 80 65zM257 0h-203v682h203v-682z" />
    <glyph glyph-name="Idotaccent" unicode="&#x130;" horiz-adv-x="311" 
d="M250 889v-155h-189v155h189zM257 0h-203v682h203v-682z" />
    <glyph glyph-name="Imacron" unicode="&#x12a;" horiz-adv-x="311" 
d="M362 746h-411v116h411v-116zM257 0h-203v682h203v-682z" />
    <glyph glyph-name="Iogonek" unicode="&#x12e;" horiz-adv-x="311" 
d="M157 0h-103v682h203v-682c-51 -24 -116 -63 -116 -94c0 -16 13 -21 29 -21c28 0 72 12 105 26l28 -87c-43 -21 -93 -39 -157 -39c-76 0 -115 29 -115 83c0 53 63 110 126 132z" />
    <glyph glyph-name="Itilde" unicode="&#x128;" horiz-adv-x="311" 
d="M-45 730v105c25 14 63 31 106 31c82 0 149 -32 212 -32c40 0 63 14 92 31v-110c-20 -14 -48 -28 -90 -28c-73 0 -144 33 -216 33c-46 0 -75 -13 -104 -30zM257 0h-203v682h203v-682z" />
    <glyph glyph-name="Jcircumflex" unicode="&#x134;" horiz-adv-x="748" 
d="M851 726h-170l-81 70l-81 -70h-170l166 153h171zM276 159c188 0 225 46 225 146v377h203v-378c0 -196 -99 -319 -421 -319c-102 0 -200 14 -276 39l46 165c67 -20 157 -30 223 -30z" />
    <glyph glyph-name="IJ" unicode="&#x132;" horiz-adv-x="804" 
d="M332 159c188 0 226 46 226 146v377h203v-378c0 -196 -99 -319 -422 -319c-102 0 -200 14 -275 39l45 165c67 -20 157 -30 223 -30zM257 277h-203v397h203v-397z" />
    <glyph glyph-name="Kcommaaccent" unicode="&#x136;" horiz-adv-x="1089" 
d="M257 0h-203v682h203v-341l120 97l369 244h279l-411 -289l431 -393h-269l-320 292l-199 -131v-161zM450 -57h189l-135 -152h-152z" />
    <glyph glyph-name="Lacute" unicode="&#x139;" horiz-adv-x="954" 
d="M191 878h234l-185 -152h-181zM257 174h677v-174h-880v682h203v-508z" />
    <glyph glyph-name="Lcaron" unicode="&#x13d;" horiz-adv-x="954" 
d="M257 174h677v-174h-880v682h203v-508zM515 501v14h-73v167h165v-185c0 -65 -38 -104 -121 -104c-19 0 -40 2 -58 6l12 79c15 -2 27 -3 39 -3c29 0 36 5 36 26z" />
    <glyph glyph-name="Lcommaaccent" unicode="&#x13b;" horiz-adv-x="954" 
d="M257 174h677v-174h-880v682h203v-508zM420 -57h189l-135 -152h-151z" />
    <glyph glyph-name="Ldot" unicode="&#x13f;" horiz-adv-x="954" 
d="M257 174h677v-174h-880v682h203v-508zM670 519v-200h-196v200h196z" />
    <glyph glyph-name="Ntilde" unicode="&#xd1;" horiz-adv-x="1129" 
d="M395 731v105c24 15 63 31 105 31c82 0 149 -31 212 -31c41 0 64 13 92 30v-109c-20 -14 -48 -29 -89 -29c-73 0 -145 33 -217 33c-45 0 -74 -13 -103 -30zM257 0h-203v682h232l586 -461v461h203v-682h-227l-591 469v-469z" />
    <glyph glyph-name="Nacute" unicode="&#x143;" horiz-adv-x="1129" 
d="M628 879h233l-184 -151h-181zM257 0h-203v682h232l586 -461v461h203v-682h-227l-591 469v-469z" />
    <glyph glyph-name="Ncaron" unicode="&#x147;" horiz-adv-x="1129" 
d="M847 881l-166 -153h-171l-165 153h170l81 -70l81 70h170zM257 0h-203v682h232l586 -461v461h203v-682h-227l-591 469v-469z" />
    <glyph glyph-name="Ncommaaccent" unicode="&#x145;" horiz-adv-x="1129" 
d="M257 0h-203v682h232l586 -461v461h203v-682h-227l-591 469v-469zM483 -57h189l-136 -152h-151z" />
    <glyph glyph-name="Oacute" unicode="&#xd3;" horiz-adv-x="1188" 
d="M627 879h234l-185 -151h-181zM594 -14c-391 0 -560 111 -560 355s169 355 560 355s560 -111 560 -355s-169 -355 -560 -355zM594 160c273 0 353 49 353 181s-80 181 -353 181c-274 0 -357 -49 -357 -181s83 -181 357 -181z" />
    <glyph glyph-name="Ocircumflex" unicode="&#xd4;" horiz-adv-x="1188" 
d="M845 728h-170l-81 69l-81 -69h-170l165 153h172zM594 -14c-391 0 -560 111 -560 355s169 355 560 355s560 -111 560 -355s-169 -355 -560 -355zM594 160c273 0 353 49 353 181s-80 181 -353 181c-274 0 -357 -49 -357 -181s83 -181 357 -181z" />
    <glyph glyph-name="Odieresis" unicode="&#xd6;" horiz-adv-x="1188" 
d="M546 883v-155h-166v155h166zM807 883v-155h-165v155h165zM594 -14c-391 0 -560 111 -560 355s169 355 560 355s560 -111 560 -355s-169 -355 -560 -355zM594 160c273 0 353 49 353 181s-80 181 -353 181c-274 0 -357 -49 -357 -181s83 -181 357 -181z" />
    <glyph glyph-name="Ograve" unicode="&#xd2;" horiz-adv-x="1188" 
d="M520 728l-185 151h234l132 -151h-181zM594 -14c-391 0 -560 111 -560 355s169 355 560 355s560 -111 560 -355s-169 -355 -560 -355zM594 160c273 0 353 49 353 181s-80 181 -353 181c-274 0 -357 -49 -357 -181s83 -181 357 -181z" />
    <glyph glyph-name="Otilde" unicode="&#xd5;" horiz-adv-x="1188" 
d="M394 731v105c25 15 63 31 106 31c82 0 148 -31 211 -31c41 0 64 13 92 30v-109c-19 -14 -48 -29 -89 -29c-73 0 -145 33 -217 33c-45 0 -74 -13 -103 -30zM594 -14c-391 0 -560 111 -560 355s169 355 560 355s560 -111 560 -355s-169 -355 -560 -355zM594 160
c273 0 353 49 353 181s-80 181 -353 181c-274 0 -357 -49 -357 -181s83 -181 357 -181z" />
    <glyph glyph-name="Obreve" unicode="&#x14e;" horiz-adv-x="1188" 
d="M672 887h139c0 -103 -65 -160 -218 -160s-219 57 -219 160h139c0 -46 19 -65 80 -65s79 19 79 65zM594 -14c-391 0 -560 111 -560 355s169 355 560 355s560 -111 560 -355s-169 -355 -560 -355zM594 160c273 0 353 49 353 181s-80 181 -353 181
c-274 0 -357 -49 -357 -181s83 -181 357 -181z" />
    <glyph glyph-name="Ohungarumlaut" unicode="&#x150;" horiz-adv-x="1188" 
d="M476 879h196l-154 -151h-146zM747 879h196l-175 -151h-146zM594 -14c-391 0 -560 111 -560 355s169 355 560 355s560 -111 560 -355s-169 -355 -560 -355zM594 160c273 0 353 49 353 181s-80 181 -353 181c-274 0 -357 -49 -357 -181s83 -181 357 -181z" />
    <glyph glyph-name="Omacron" unicode="&#x14c;" horiz-adv-x="1188" 
d="M800 748h-410v115h410v-115zM594 -14c-391 0 -560 111 -560 355s169 355 560 355s560 -111 560 -355s-169 -355 -560 -355zM594 160c273 0 353 49 353 181s-80 181 -353 181c-274 0 -357 -49 -357 -181s83 -181 357 -181z" />
    <glyph glyph-name="Racute" unicode="&#x154;" horiz-adv-x="1057" 
d="M526 879h234l-185 -151h-181zM257 0h-203v682h683c168 0 285 -59 285 -238c0 -150 -89 -222 -240 -234l-44 -1l54 -33l224 -176h-255l-245 198h-259v-198zM257 508v-158h460c67 0 95 22 95 78c0 61 -28 80 -95 80h-460z" />
    <glyph glyph-name="Rcaron" unicode="&#x158;" horiz-adv-x="1057" 
d="M745 881l-165 -153h-171l-166 153h170l81 -70l81 70h170zM257 0h-203v682h683c168 0 285 -59 285 -238c0 -150 -89 -222 -240 -234l-44 -1l54 -33l224 -176h-255l-245 198h-259v-198zM257 508v-158h460c67 0 95 22 95 78c0 61 -28 80 -95 80h-460z" />
    <glyph glyph-name="Rcommaaccent" unicode="&#x156;" horiz-adv-x="1057" 
d="M257 0h-203v682h683c168 0 285 -59 285 -238c0 -150 -89 -222 -240 -234l-44 -1l54 -33l224 -176h-255l-245 198h-259v-198zM257 508v-158h460c67 0 95 22 95 78c0 61 -28 80 -95 80h-460zM382 -57h190l-136 -152h-151z" />
    <glyph glyph-name="Scaron" unicode="&#x160;" horiz-adv-x="1012" 
d="M736 881l-165 -153h-171l-166 153h170l81 -70l81 70h170zM974 194c0 -144 -98 -207 -435 -207c-170 0 -367 24 -490 54l29 163c140 -31 310 -58 515 -58c160 0 189 13 189 54c0 42 -25 47 -78 52l-377 22c-212 10 -289 78 -289 205c0 153 134 215 450 215
c121 0 318 -19 453 -48l-33 -153c-116 23 -296 42 -467 42c-184 0 -211 -10 -211 -51c0 -38 26 -44 88 -48l372 -22c196 -11 284 -79 284 -220z" />
    <glyph glyph-name="Sacute" unicode="&#x15a;" horiz-adv-x="1012" 
d="M517 879h234l-184 -151h-182zM974 194c0 -144 -98 -207 -435 -207c-170 0 -367 24 -490 54l29 163c140 -31 310 -58 515 -58c160 0 189 13 189 54c0 42 -25 47 -78 52l-377 22c-212 10 -289 78 -289 205c0 153 134 215 450 215c121 0 318 -19 453 -48l-33 -153
c-116 23 -296 42 -467 42c-184 0 -211 -10 -211 -51c0 -38 26 -44 88 -48l372 -22c196 -11 284 -79 284 -220z" />
    <glyph glyph-name="Scedilla" unicode="&#x15e;" horiz-adv-x="1012" 
d="M974 194c0 -144 -98 -207 -435 -207c-170 0 -367 24 -490 54l29 163c140 -31 310 -58 515 -58c160 0 189 13 189 54c0 42 -25 47 -78 52l-377 22c-212 10 -289 78 -289 205c0 153 134 215 450 215c121 0 318 -19 453 -48l-33 -153c-116 23 -296 42 -467 42
c-184 0 -211 -10 -211 -51c0 -38 26 -44 88 -48l372 -22c196 -11 284 -79 284 -220zM465 -51h114v-33c0 -101 -38 -140 -156 -140c-47 0 -103 9 -134 18l23 98c30 -6 69 -12 99 -12c37 0 54 8 54 44v25z" />
    <glyph glyph-name="Scircumflex" unicode="&#x15c;" horiz-adv-x="1012" 
d="M735 728h-170l-81 69l-81 -69h-170l166 153h171zM974 194c0 -144 -98 -207 -435 -207c-170 0 -367 24 -490 54l29 163c140 -31 310 -58 515 -58c160 0 189 13 189 54c0 42 -25 47 -78 52l-377 22c-212 10 -289 78 -289 205c0 153 134 215 450 215c121 0 318 -19 453 -48
l-33 -153c-116 23 -296 42 -467 42c-184 0 -211 -10 -211 -51c0 -38 26 -44 88 -48l372 -22c196 -11 284 -79 284 -220z" />
    <glyph glyph-name="Tbar" unicode="&#x166;" horiz-adv-x="1054" 
d="M426 508h-405v174h1012v-174h-404v-158h240v-120h-240v-230h-203v230h-241v120h241v158z" />
    <glyph glyph-name="Tcaron" unicode="&#x164;" horiz-adv-x="1054" 
d="M779 881l-165 -153h-172l-165 153h170l81 -70l81 70h170zM426 508h-405v174h1012v-174h-404v-508h-203v508z" />
    <glyph glyph-name="Uacute" unicode="&#xda;" horiz-adv-x="1074" 
d="M570 878h234l-185 -152h-181zM827 361v321h203v-364c0 -233 -192 -329 -493 -329s-493 96 -493 329v364h203v-321c0 -146 88 -199 290 -199s290 53 290 199z" />
    <glyph glyph-name="Ucircumflex" unicode="&#xdb;" horiz-adv-x="1074" 
d="M788 726h-170l-81 70l-81 -70h-170l165 153h172zM827 361v321h203v-364c0 -233 -192 -329 -493 -329s-493 96 -493 329v364h203v-321c0 -146 88 -199 290 -199s290 53 290 199z" />
    <glyph glyph-name="Udieresis" unicode="&#xdc;" horiz-adv-x="1074" 
d="M489 882v-156h-166v156h166zM750 882v-156h-165v156h165zM827 361v321h203v-364c0 -233 -192 -329 -493 -329s-493 96 -493 329v364h203v-321c0 -146 88 -199 290 -199s290 53 290 199z" />
    <glyph glyph-name="Ugrave" unicode="&#xd9;" horiz-adv-x="1074" 
d="M463 726l-185 152h234l132 -152h-181zM827 361v321h203v-364c0 -233 -192 -329 -493 -329s-493 96 -493 329v364h203v-321c0 -146 88 -199 290 -199s290 53 290 199z" />
    <glyph glyph-name="Ubreve" unicode="&#x16c;" horiz-adv-x="1074" 
d="M615 886h139c0 -104 -65 -160 -218 -160s-219 56 -219 160h139c0 -46 19 -65 80 -65s79 19 79 65zM827 361v321h203v-364c0 -233 -192 -329 -493 -329s-493 96 -493 329v364h203v-321c0 -146 88 -199 290 -199s290 53 290 199z" />
    <glyph glyph-name="Uhungarumlaut" unicode="&#x170;" horiz-adv-x="1074" 
d="M419 878h196l-153 -152h-147zM690 878h196l-174 -152h-147zM827 361v321h203v-364c0 -233 -192 -329 -493 -329s-493 96 -493 329v364h203v-321c0 -146 88 -199 290 -199s290 53 290 199z" />
    <glyph glyph-name="Umacron" unicode="&#x16a;" horiz-adv-x="1074" 
d="M743 746h-410v116h410v-116zM827 361v321h203v-364c0 -233 -192 -329 -493 -329s-493 96 -493 329v364h203v-321c0 -146 88 -199 290 -199s290 53 290 199z" />
    <glyph glyph-name="Uogonek" unicode="&#x172;" horiz-adv-x="1074" 
d="M827 361v321h203v-364c0 -188 -125 -287 -332 -318h1c-51 -24 -115 -63 -115 -94c0 -16 12 -21 29 -21c27 0 71 12 104 26l28 -87c-43 -21 -93 -39 -156 -39c-77 0 -115 29 -115 83c0 46 47 95 100 122c-12 -1 -24 -1 -37 -1c-301 0 -493 96 -493 329v364h203v-321
c0 -146 88 -199 290 -199s290 53 290 199z" />
    <glyph glyph-name="Uring" unicode="&#x16e;" horiz-adv-x="1074" 
d="M537 725c-106 0 -155 38 -155 113c0 71 49 109 155 109s154 -38 154 -109c0 -75 -48 -113 -154 -113zM468 837c0 -27 13 -42 69 -42c55 0 68 15 68 42c0 26 -13 40 -68 40c-56 0 -69 -14 -69 -40zM827 361v321h203v-364c0 -233 -192 -329 -493 -329s-493 96 -493 329v364
h203v-321c0 -146 88 -199 290 -199s290 53 290 199z" />
    <glyph glyph-name="Utilde" unicode="&#x168;" horiz-adv-x="1074" 
d="M337 730v105c25 14 63 31 106 31c82 0 149 -32 211 -32c41 0 64 14 92 31v-110c-19 -14 -47 -28 -89 -28c-73 0 -144 33 -217 33c-45 0 -74 -13 -103 -30zM827 361v321h203v-364c0 -233 -192 -329 -493 -329s-493 96 -493 329v364h203v-321c0 -146 88 -199 290 -199
s290 53 290 199z" />
    <glyph glyph-name="Wacute" unicode="&#x1e82;" horiz-adv-x="1645" 
d="M855 879h234l-184 -151h-182zM321 0l-304 682h229l211 -497l244 497h242l250 -497l206 497h229l-304 -682h-260l-241 485l-242 -485h-260z" />
    <glyph glyph-name="Wcircumflex" unicode="&#x174;" horiz-adv-x="1645" 
d="M1073 728h-169l-81 69l-82 -69h-170l166 153h171zM321 0l-304 682h229l211 -497l244 497h242l250 -497l206 497h229l-304 -682h-260l-241 485l-242 -485h-260z" />
    <glyph glyph-name="Wdieresis" unicode="&#x1e84;" horiz-adv-x="1645" 
d="M774 883v-155h-165v155h165zM1036 883v-155h-166v155h166zM321 0l-304 682h229l211 -497l244 497h242l250 -497l206 497h229l-304 -682h-260l-241 485l-242 -485h-260z" />
    <glyph glyph-name="Wgrave" unicode="&#x1e80;" horiz-adv-x="1645" 
d="M748 728l-184 151h233l132 -151h-181zM321 0l-304 682h229l211 -497l244 497h242l250 -497l206 497h229l-304 -682h-260l-241 485l-242 -485h-260z" />
    <glyph glyph-name="Yacute" unicode="&#xdd;" horiz-adv-x="1131" 
d="M600 879h234l-185 -151h-181zM463 253l-462 429h260l306 -276l306 276h256l-463 -430v-252h-203v253z" />
    <glyph glyph-name="Ydieresis" unicode="&#x178;" horiz-adv-x="1131" 
d="M519 883v-155h-166v155h166zM780 883v-155h-165v155h165zM463 253l-462 429h260l306 -276l306 276h256l-463 -430v-252h-203v253z" />
    <glyph glyph-name="Ycircumflex" unicode="&#x176;" horiz-adv-x="1131" 
d="M818 728h-170l-81 69l-81 -69h-170l165 153h172zM463 253l-462 429h260l306 -276l306 276h256l-463 -430v-252h-203v253z" />
    <glyph glyph-name="Ygrave" unicode="&#x1ef2;" horiz-adv-x="1131" 
d="M493 728l-185 151h234l132 -151h-181zM463 253l-462 429h260l306 -276l306 276h256l-463 -430v-252h-203v253z" />
    <glyph glyph-name="Zcaron" unicode="&#x17d;" horiz-adv-x="1090" 
d="M799 881l-166 -153h-171l-165 153h170l81 -70l81 70h170zM1044 174v-174h-997v159l451 251c83 38 227 85 298 104l-331 -14h-402v174h976v-160l-383 -226c-94 -46 -256 -101 -352 -129l343 15h397z" />
    <glyph glyph-name="Zacute" unicode="&#x179;" horiz-adv-x="1090" 
d="M580 879h233l-184 -151h-181zM1044 174v-174h-997v159l451 251c83 38 227 85 298 104l-331 -14h-402v174h976v-160l-383 -226c-94 -46 -256 -101 -352 -129l343 15h397z" />
    <glyph glyph-name="Zdotaccent" unicode="&#x17b;" horiz-adv-x="1090" 
d="M641 891v-156h-188v156h188zM1044 174v-174h-997v159l451 251c83 38 227 85 298 104l-331 -14h-402v174h976v-160l-383 -226c-94 -46 -256 -101 -352 -129l343 15h397z" />
    <glyph glyph-name="aacute" unicode="&#xe1;" horiz-adv-x="903" 
d="M520 747h233l-195 -152h-181zM856 487l-1 -1h1v-486h-166l-14 68c-100 -43 -218 -78 -340 -78c-181 0 -302 70 -302 260c0 205 157 270 386 270c176 0 323 -18 436 -33zM223 257c0 -81 41 -111 150 -111c87 0 187 19 294 50v159c-84 8 -182 13 -266 13
c-118 0 -178 -31 -178 -111z" />
    <glyph glyph-name="acircumflex" unicode="&#xe2;" horiz-adv-x="903" 
d="M725 594h-170l-81 69l-81 -69h-170l165 153h172zM856 487l-1 -1h1v-486h-166l-14 68c-100 -43 -218 -78 -340 -78c-181 0 -302 70 -302 260c0 205 157 270 386 270c176 0 323 -18 436 -33zM223 257c0 -81 41 -111 150 -111c87 0 187 19 294 50v159c-84 8 -182 13 -266 13
c-118 0 -178 -31 -178 -111z" />
    <glyph glyph-name="adieresis" unicode="&#xe4;" horiz-adv-x="903" 
d="M426 743v-155h-166v155h166zM687 743v-155h-166v155h166zM856 487l-1 -1h1v-486h-166l-14 68c-100 -43 -218 -78 -340 -78c-181 0 -302 70 -302 260c0 205 157 270 386 270c176 0 323 -18 436 -33zM223 257c0 -81 41 -111 150 -111c87 0 187 19 294 50v159
c-84 8 -182 13 -266 13c-118 0 -178 -31 -178 -111z" />
    <glyph glyph-name="agrave" unicode="&#xe0;" horiz-adv-x="903" 
d="M382 595l-193 152h233l142 -152h-182zM856 487l-1 -1h1v-486h-166l-14 68c-100 -43 -218 -78 -340 -78c-181 0 -302 70 -302 260c0 205 157 270 386 270c176 0 323 -18 436 -33zM223 257c0 -81 41 -111 150 -111c87 0 187 19 294 50v159c-84 8 -182 13 -266 13
c-118 0 -178 -31 -178 -111z" />
    <glyph glyph-name="aring" unicode="&#xe5;" horiz-adv-x="903" 
d="M473 588c-105 0 -155 37 -155 112c0 72 50 109 155 109c106 0 155 -37 155 -109c0 -75 -49 -112 -155 -112zM405 700c0 -28 13 -43 68 -43c56 0 68 15 68 43c0 25 -12 39 -68 39c-55 0 -68 -14 -68 -39zM856 487l-1 -1h1v-486h-166l-14 68c-100 -43 -218 -78 -340 -78
c-181 0 -302 70 -302 260c0 205 157 270 386 270c176 0 323 -18 436 -33zM223 257c0 -81 41 -111 150 -111c87 0 187 19 294 50v159c-84 8 -182 13 -266 13c-118 0 -178 -31 -178 -111z" />
    <glyph glyph-name="atilde" unicode="&#xe3;" horiz-adv-x="903" 
d="M275 598v106c25 14 63 30 106 30c82 0 148 -31 211 -31c41 0 64 13 92 30v-109c-19 -14 -48 -28 -89 -28c-73 0 -145 32 -217 32c-45 0 -74 -12 -103 -30zM856 487l-1 -1h1v-486h-166l-14 68c-100 -43 -218 -78 -340 -78c-181 0 -302 70 -302 260c0 205 157 270 386 270
c176 0 323 -18 436 -33zM223 257c0 -81 41 -111 150 -111c87 0 187 19 294 50v159c-84 8 -182 13 -266 13c-118 0 -178 -31 -178 -111z" />
    <glyph glyph-name="abreve" unicode="&#x103;" horiz-adv-x="903" 
d="M553 745h139c0 -104 -65 -160 -219 -160c-153 0 -219 56 -219 160h139c0 -46 20 -65 80 -65c61 0 80 19 80 65zM856 487l-1 -1h1v-486h-166l-14 68c-100 -43 -218 -78 -340 -78c-181 0 -302 70 -302 260c0 205 157 270 386 270c176 0 323 -18 436 -33zM223 257
c0 -81 41 -111 150 -111c87 0 187 19 294 50v159c-84 8 -182 13 -266 13c-118 0 -178 -31 -178 -111z" />
    <glyph glyph-name="amacron" unicode="&#x101;" horiz-adv-x="903" 
d="M856 487l-1 -1h1v-486h-166l-14 68c-100 -43 -218 -78 -340 -78c-181 0 -302 70 -302 260c0 176 115 248 292 266v17h411v-31c43 -5 83 -10 119 -15zM223 257c0 -81 41 -111 150 -111c87 0 187 19 294 50v159c-84 8 -182 13 -266 13c-118 0 -178 -31 -178 -111z" />
    <glyph glyph-name="aogonek" unicode="&#x105;" horiz-adv-x="903" 
d="M856 487l-1 -1h1v-486h-3c-51 -24 -115 -63 -115 -94c0 -16 12 -21 28 -21c28 0 72 12 105 26l28 -87c-43 -21 -93 -39 -156 -39c-77 0 -116 29 -116 83c0 53 66 111 125 132h-62l-14 68c-100 -43 -218 -78 -340 -78c-181 0 -302 70 -302 260c0 205 157 270 386 270
c176 0 323 -18 436 -33zM223 257c0 -81 41 -111 150 -111c87 0 187 19 294 50v159c-84 8 -182 13 -266 13c-118 0 -178 -31 -178 -111z" />
    <glyph glyph-name="ccedilla" unicode="&#xe7;" horiz-adv-x="849" 
d="M34 256c0 186 129 267 433 267c128 0 255 -17 348 -39l-38 -151c-74 15 -179 31 -338 31s-216 -24 -216 -108c0 -85 57 -108 216 -108s264 16 338 31l38 -151c-93 -22 -217 -39 -348 -39c-304 0 -433 82 -433 267zM453 -41h114v-33c0 -101 -38 -140 -156 -140
c-47 0 -103 9 -134 18l22 98c31 -6 70 -12 99 -12c37 0 55 8 55 44v25z" />
    <glyph glyph-name="cacute" unicode="&#x107;" horiz-adv-x="849" 
d="M504 747h233l-195 -152h-181zM34 256c0 186 129 267 433 267c128 0 255 -17 348 -39l-38 -151c-74 15 -179 31 -338 31s-216 -24 -216 -108c0 -85 57 -108 216 -108s264 16 338 31l38 -151c-93 -22 -217 -39 -348 -39c-304 0 -433 82 -433 267z" />
    <glyph glyph-name="ccaron" unicode="&#x10d;" horiz-adv-x="849" 
d="M710 747l-166 -153h-171l-165 153h170l81 -70l81 70h170zM34 256c0 186 129 267 433 267c128 0 255 -17 348 -39l-38 -151c-74 15 -179 31 -338 31s-216 -24 -216 -108c0 -85 57 -108 216 -108s264 16 338 31l38 -151c-93 -22 -217 -39 -348 -39c-304 0 -433 82 -433 267
z" />
    <glyph glyph-name="ccircumflex" unicode="&#x109;" horiz-adv-x="849" 
d="M697 594h-170l-81 69l-81 -69h-170l166 153h171zM34 256c0 186 128 267 433 267c128 0 255 -17 348 -39l-38 -151c-74 15 -179 31 -339 31c-158 0 -216 -24 -216 -108c0 -85 58 -108 216 -108c160 0 265 16 339 31l38 -151c-93 -22 -218 -39 -348 -39
c-305 0 -433 82 -433 267z" />
    <glyph glyph-name="cdotaccent" unicode="&#x10b;" horiz-adv-x="849" 
d="M552 737v-156h-188v156h188zM34 256c0 186 129 267 433 267c128 0 255 -17 348 -39l-38 -151c-74 15 -179 31 -338 31s-216 -24 -216 -108c0 -85 57 -108 216 -108s264 16 338 31l38 -151c-93 -22 -217 -39 -348 -39c-304 0 -433 82 -433 267z" />
    <glyph glyph-name="dcaron" unicode="&#x10f;" horiz-adv-x="910" 
d="M667 750h189v-750h-166l-13 70c-97 -43 -209 -80 -327 -80c-197 0 -316 67 -316 260c0 202 151 270 372 270c98 0 186 -11 261 -25v255zM978 569v14h-72v167h165v-185c0 -65 -39 -104 -122 -104c-19 0 -39 2 -57 6l11 79c15 -2 27 -3 39 -3c29 0 36 5 36 26zM223 253
c0 -77 43 -107 157 -107c85 0 183 18 287 48v157c-85 9 -187 17 -273 17c-113 0 -171 -33 -171 -115z" />
    <glyph glyph-name="dcroat" unicode="&#x111;" horiz-adv-x="955" 
d="M667 750h189v-67h89v-98h-89v-585h-166l-13 70c-97 -43 -209 -80 -327 -80c-197 0 -316 67 -316 260c0 202 151 270 372 270c98 0 186 -11 261 -25v90h-231v98h231v67zM223 253c0 -77 43 -107 157 -107c85 0 183 18 287 48v157c-85 9 -187 17 -273 17
c-113 0 -171 -33 -171 -115z" />
    <glyph glyph-name="eacute" unicode="&#xe9;" 
d="M483 747h233l-195 -152h-181zM467 135c152 0 262 16 323 26l38 -136c-95 -24 -247 -39 -378 -39c-290 0 -416 79 -416 269c0 189 142 268 404 268c243 0 402 -63 402 -229c0 -24 -3 -69 -5 -82h-614c17 -63 81 -77 246 -77zM431 397c-140 0 -196 -21 -211 -87h433
c-11 61 -61 87 -222 87z" />
    <glyph glyph-name="ecircumflex" unicode="&#xea;" 
d="M688 594h-170l-81 69l-81 -69h-170l165 153h172zM467 135c152 0 262 16 323 26l38 -136c-95 -24 -247 -39 -378 -39c-290 0 -416 79 -416 269c0 189 142 268 404 268c243 0 402 -63 402 -229c0 -24 -3 -69 -5 -82h-614c17 -63 81 -77 246 -77zM431 397
c-140 0 -196 -21 -211 -87h433c-11 61 -61 87 -222 87z" />
    <glyph glyph-name="edieresis" unicode="&#xeb;" 
d="M389 743v-155h-166v155h166zM650 743v-155h-166v155h166zM467 135c152 0 262 16 323 26l38 -136c-95 -24 -247 -39 -378 -39c-290 0 -416 79 -416 269c0 189 142 268 404 268c243 0 402 -63 402 -229c0 -24 -3 -69 -5 -82h-614c17 -63 81 -77 246 -77zM431 397
c-140 0 -196 -21 -211 -87h433c-11 61 -61 87 -222 87z" />
    <glyph glyph-name="egrave" unicode="&#xe8;" 
d="M345 595l-193 152h233l142 -152h-182zM467 135c152 0 262 16 323 26l38 -136c-95 -24 -247 -39 -378 -39c-290 0 -416 79 -416 269c0 189 142 268 404 268c243 0 402 -63 402 -229c0 -24 -3 -69 -5 -82h-614c17 -63 81 -77 246 -77zM431 397c-140 0 -196 -21 -211 -87
h433c-11 61 -61 87 -222 87z" />
    <glyph glyph-name="ebreve" unicode="&#x115;" 
d="M516 745h138c0 -104 -64 -160 -218 -160c-153 0 -219 56 -219 160h139c0 -46 19 -65 80 -65s80 19 80 65zM467 135c152 0 262 16 323 26l38 -136c-95 -24 -247 -39 -378 -39c-290 0 -416 79 -416 269c0 189 142 268 404 268c243 0 402 -63 402 -229c0 -24 -3 -69 -5 -82
h-614c17 -63 81 -77 246 -77zM431 397c-140 0 -196 -21 -211 -87h433c-11 61 -61 87 -222 87z" />
    <glyph glyph-name="ecaron" unicode="&#x11b;" 
d="M689 747l-166 -153h-171l-165 153h170l81 -70l81 70h170zM467 135c152 0 262 16 323 26l38 -136c-95 -24 -247 -39 -378 -39c-290 0 -416 79 -416 269c0 189 142 268 404 268c243 0 402 -63 402 -229c0 -24 -3 -69 -5 -82h-614c17 -63 81 -77 246 -77zM431 397
c-140 0 -196 -21 -211 -87h433c-11 61 -61 87 -222 87z" />
    <glyph glyph-name="edotaccent" unicode="&#x117;" 
d="M531 737v-156h-188v156h188zM467 135c152 0 262 16 323 26l38 -136c-95 -24 -247 -39 -378 -39c-290 0 -416 79 -416 269c0 189 142 268 404 268c243 0 402 -63 402 -229c0 -24 -3 -69 -5 -82h-614c17 -63 81 -77 246 -77zM431 397c-140 0 -196 -21 -211 -87h433
c-11 61 -61 87 -222 87z" />
    <glyph glyph-name="emacron" unicode="&#x113;" 
d="M643 615h-411v115h411v-115zM467 135c152 0 262 16 323 26l38 -136c-95 -24 -247 -39 -378 -39c-290 0 -416 79 -416 269c0 189 142 268 404 268c243 0 402 -63 402 -229c0 -24 -3 -69 -5 -82h-614c17 -63 81 -77 246 -77zM431 397c-140 0 -196 -21 -211 -87h433
c-11 61 -61 87 -222 87z" />
    <glyph glyph-name="eogonek" unicode="&#x119;" 
d="M467 135c152 0 262 16 323 26l38 -136c-42 -11 -95 -19 -152 -26c-51 -24 -114 -62 -114 -93c0 -16 13 -21 29 -21c28 0 72 12 105 26l27 -87c-42 -21 -92 -39 -156 -39c-76 0 -115 29 -115 83c0 45 47 94 100 121c-35 -2 -69 -3 -102 -3c-290 0 -416 79 -416 269
c0 189 142 268 404 268c243 0 402 -63 402 -229c0 -24 -3 -69 -5 -82h-614c17 -63 81 -77 246 -77zM431 397c-140 0 -196 -21 -211 -87h433c-11 61 -61 87 -222 87z" />
    <glyph glyph-name="gbreve" unicode="&#x11f;" horiz-adv-x="905" 
d="M536 742h138c0 -103 -64 -160 -218 -160c-153 0 -219 57 -219 160h139c0 -46 19 -65 80 -65s80 19 80 65zM863 486v-395c0 -202 -137 -286 -438 -286c-122 0 -254 16 -360 47l39 140c110 -27 220 -41 333 -41c196 0 251 50 246 141c-95 -31 -209 -52 -324 -52
c-209 0 -325 64 -325 235c0 186 152 245 393 245c176 0 323 -18 436 -33l-1 -1h1zM223 275c0 -63 41 -90 150 -90c88 0 193 8 301 30v140c-86 7 -187 13 -273 13c-118 0 -178 -25 -178 -93z" />
    <glyph glyph-name="gcircumflex" unicode="&#x11d;" horiz-adv-x="905" 
d="M708 591h-170l-81 69l-81 -69h-170l166 153h171zM863 486v-395c0 -202 -137 -286 -438 -286c-122 0 -254 16 -360 47l39 140c110 -27 220 -41 333 -41c196 0 251 50 246 141c-95 -31 -209 -52 -324 -52c-209 0 -325 64 -325 235c0 186 152 245 393 245
c176 0 323 -18 436 -33l-1 -1h1zM223 275c0 -63 41 -90 150 -90c88 0 193 8 301 30v140c-86 7 -187 13 -273 13c-118 0 -178 -25 -178 -93z" />
    <glyph glyph-name="gcommaaccent" unicode="&#x123;" horiz-adv-x="905" 
d="M537 595h-233l150 152h180zM863 486v-395c0 -202 -137 -286 -438 -286c-122 0 -254 16 -360 47l39 140c110 -27 220 -41 333 -41c196 0 251 50 246 141c-95 -31 -209 -52 -324 -52c-209 0 -325 64 -325 235c0 186 152 245 393 245c176 0 323 -18 436 -33l-1 -1h1z
M223 275c0 -63 41 -90 150 -90c88 0 193 8 301 30v140c-86 7 -187 13 -273 13c-118 0 -178 -25 -178 -93z" />
    <glyph glyph-name="gdotaccent" unicode="&#x121;" horiz-adv-x="905" 
d="M552 734v-156h-189v156h189zM863 486v-395c0 -202 -137 -286 -438 -286c-122 0 -254 16 -360 47l39 140c110 -27 220 -41 333 -41c196 0 251 50 246 141c-95 -31 -209 -52 -324 -52c-209 0 -325 64 -325 235c0 186 152 245 393 245c176 0 323 -18 436 -33l-1 -1h1z
M223 275c0 -63 41 -90 150 -90c88 0 193 8 301 30v140c-86 7 -187 13 -273 13c-118 0 -178 -25 -178 -93z" />
    <glyph glyph-name="hbar" unicode="&#x127;" horiz-adv-x="954" 
d="M100 0v585h-90v98h90v67h188v-67h241v-98h-241v-127c101 37 220 65 340 65c184 0 285 -70 285 -240v-283h-189v251c0 78 -53 115 -158 115c-77 0 -171 -17 -278 -45v-321h-188z" />
    <glyph glyph-name="hcircumflex" unicode="&#x125;" horiz-adv-x="908" 
d="M554 785h-170l-81 70l-81 -70h-170l165 153h172zM54 0v750h189v-291c101 36 220 64 339 64c184 0 285 -70 285 -240v-283h-189v251c0 78 -52 115 -157 115c-78 0 -172 -16 -278 -45v-321h-189z" />
    <glyph glyph-name="iacute" unicode="&#xed;" horiz-adv-x="289" 
d="M194 747h234l-195 -152h-182zM54 0v510h189v-510h-189z" />
    <glyph glyph-name="icircumflex" unicode="&#xee;" horiz-adv-x="289" 
d="M399 594h-169l-81 69l-82 -69h-170l166 153h171zM54 0v510h189v-510h-189z" />
    <glyph glyph-name="idieresis" unicode="&#xef;" horiz-adv-x="289" 
d="M100 743v-155h-166v155h166zM361 743v-155h-165v155h165zM54 0v510h189v-510h-189z" />
    <glyph glyph-name="igrave" unicode="&#xec;" horiz-adv-x="289" 
d="M57 595l-194 152h234l141 -152h-181zM54 0v510h189v-510h-189z" />
    <glyph glyph-name="ibreve" unicode="&#x12d;" horiz-adv-x="289" 
d="M227 745h139c0 -104 -65 -160 -218 -160s-219 56 -219 160h139c0 -46 19 -65 80 -65s79 19 79 65zM54 0v510h189v-510h-189z" />
    <glyph glyph-name="imacron" unicode="&#x12b;" horiz-adv-x="289" 
d="M354 615h-410v115h410v-115zM54 0v510h189v-510h-189z" />
    <glyph glyph-name="iogonek" unicode="&#x12f;" horiz-adv-x="297" 
d="M243 731v-156h-189v156h189zM54 0v510h189v-510c-51 -24 -115 -63 -115 -94c0 -16 12 -21 29 -21c27 0 71 12 104 26l28 -87c-43 -21 -93 -39 -156 -39c-77 0 -115 29 -115 83c0 53 65 111 125 132h-89z" />
    <glyph glyph-name="itilde" unicode="&#x129;" horiz-adv-x="289" 
d="M-51 598v106c25 14 63 30 106 30c82 0 149 -31 211 -31c41 0 64 13 93 30v-109c-20 -14 -48 -28 -90 -28c-73 0 -144 32 -216 32c-46 0 -75 -12 -104 -30zM54 0v510h189v-510h-189z" />
    <glyph glyph-name="jcircumflex" unicode="&#x135;" horiz-adv-x="304" 
d="M414 594h-170l-81 69l-81 -69h-170l165 153h171zM153 -182h-196c31 42 97 144 97 281v411h189v-412c0 -153 -60 -241 -90 -280z" />
    <glyph glyph-name="ij" unicode="&#x133;" horiz-adv-x="632" 
d="M243 731v-156h-189v156h189zM542 731v-156h-188v156h188zM54 0v510h189v-510h-189zM453 -182h-196c30 42 97 144 97 281v411h188v-412c0 -153 -59 -241 -89 -280z" />
    <glyph glyph-name="kcommaaccent" unicode="&#x137;" horiz-adv-x="864" 
d="M243 750v-404h147l228 164h252l-321 -241l334 -269h-254l-242 192h-144v-192h-189v750h189zM349 -57h189l-135 -152h-151z" />
    <glyph glyph-name="lacute" unicode="&#x13a;" horiz-adv-x="297" 
d="M181 934h234l-185 -152h-181zM243 750v-750h-189v750h189z" />
    <glyph glyph-name="lcaron" unicode="&#x13e;" horiz-adv-x="297" 
d="M243 750v-750h-189v750h189zM364 569v14h-73v167h165v-185c0 -65 -38 -104 -121 -104c-19 0 -40 2 -58 6l12 79c15 -2 27 -3 39 -3c29 0 36 5 36 26z" />
    <glyph glyph-name="lcommaaccent" unicode="&#x13c;" horiz-adv-x="297" 
d="M243 750v-750h-189v750h189zM41 -57h189l-135 -152h-151z" />
    <glyph glyph-name="ldot" unicode="&#x140;" horiz-adv-x="476" 
d="M243 750v-750h-189v750h189zM481 429v-156h-189v156h189z" />
    <glyph glyph-name="ntilde" unicode="&#xf1;" horiz-adv-x="908" 
d="M284 598v106c24 14 63 30 105 30c82 0 149 -31 212 -31c41 0 64 13 92 30v-109c-20 -14 -48 -28 -89 -28c-73 0 -145 32 -217 32c-45 0 -74 -12 -103 -30zM54 0v510h166l11 -61c104 41 227 74 351 74c184 0 285 -70 285 -240v-283h-189v251c0 78 -52 115 -157 115
c-78 0 -172 -16 -278 -45v-321h-189z" />
    <glyph glyph-name="nacute" unicode="&#x144;" horiz-adv-x="908" 
d="M528 747h234l-195 -152h-181zM54 0v510h166l11 -61c104 41 227 74 351 74c184 0 285 -70 285 -240v-283h-189v251c0 78 -52 115 -157 115c-78 0 -172 -16 -278 -45v-321h-189z" />
    <glyph glyph-name="ncaron" unicode="&#x148;" horiz-adv-x="908" 
d="M735 747l-166 -153h-171l-165 153h169l82 -70l81 70h170zM54 0v510h166l11 -61c104 41 227 74 351 74c184 0 285 -70 285 -240v-283h-189v251c0 78 -52 115 -157 115c-78 0 -172 -16 -278 -45v-321h-189z" />
    <glyph glyph-name="ncommaaccent" unicode="&#x146;" horiz-adv-x="908" 
d="M54 0v510h166l11 -61c104 41 227 74 351 74c184 0 285 -70 285 -240v-283h-189v251c0 78 -52 115 -157 115c-78 0 -172 -16 -278 -45v-321h-189zM382 -57h190l-136 -152h-151z" />
    <glyph glyph-name="oacute" unicode="&#xf3;" horiz-adv-x="962" 
d="M528 747h234l-196 -152h-181zM34 256c0 186 145 269 447 269c301 0 447 -83 447 -269s-146 -269 -447 -269c-302 0 -447 83 -447 269zM223 256c0 -79 54 -110 258 -110s258 31 258 110s-54 110 -258 110s-258 -31 -258 -110z" />
    <glyph glyph-name="ocircumflex" unicode="&#xf4;" horiz-adv-x="962" 
d="M733 594h-170l-81 69l-81 -69h-170l166 153h171zM34 256c0 186 145 269 447 269c301 0 447 -83 447 -269s-146 -269 -447 -269c-302 0 -447 83 -447 269zM223 256c0 -79 54 -110 258 -110s258 31 258 110s-54 110 -258 110s-258 -31 -258 -110z" />
    <glyph glyph-name="odieresis" unicode="&#xf6;" horiz-adv-x="962" 
d="M434 743v-155h-166v155h166zM695 743v-155h-165v155h165zM34 256c0 186 145 269 447 269c301 0 447 -83 447 -269s-146 -269 -447 -269c-302 0 -447 83 -447 269zM223 256c0 -79 54 -110 258 -110s258 31 258 110s-54 110 -258 110s-258 -31 -258 -110z" />
    <glyph glyph-name="ograve" unicode="&#xf2;" horiz-adv-x="962" 
d="M391 595l-194 152h234l141 -152h-181zM34 256c0 186 145 269 447 269c301 0 447 -83 447 -269s-146 -269 -447 -269c-302 0 -447 83 -447 269zM223 256c0 -79 54 -110 258 -110s258 31 258 110s-54 110 -258 110s-258 -31 -258 -110z" />
    <glyph glyph-name="otilde" unicode="&#xf5;" horiz-adv-x="962" 
d="M282 596v105c24 14 63 31 106 31c81 0 148 -32 211 -32c41 0 64 14 92 30v-109c-20 -14 -48 -28 -89 -28c-73 0 -145 33 -217 33c-45 0 -74 -13 -103 -30zM34 256c0 186 145 269 447 269c301 0 447 -83 447 -269s-146 -269 -447 -269c-302 0 -447 83 -447 269zM223 256
c0 -79 54 -110 258 -110s258 31 258 110s-54 110 -258 110s-258 -31 -258 -110z" />
    <glyph glyph-name="obreve" unicode="&#x14f;" horiz-adv-x="962" 
d="M561 745h139c0 -104 -65 -160 -218 -160s-219 56 -219 160h139c0 -46 19 -65 80 -65s79 19 79 65zM34 256c0 186 145 269 447 269c301 0 447 -83 447 -269s-146 -269 -447 -269c-302 0 -447 83 -447 269zM223 256c0 -79 54 -110 258 -110s258 31 258 110
s-54 110 -258 110s-258 -31 -258 -110z" />
    <glyph glyph-name="ohungarumlaut" unicode="&#x151;" horiz-adv-x="962" 
d="M367 747h195l-153 -152h-146zM638 747h196l-175 -152h-146zM34 256c0 186 145 269 447 269c301 0 447 -83 447 -269s-146 -269 -447 -269c-302 0 -447 83 -447 269zM223 256c0 -79 54 -110 258 -110s258 31 258 110s-54 110 -258 110s-258 -31 -258 -110z" />
    <glyph glyph-name="omacron" unicode="&#x14d;" horiz-adv-x="962" 
d="M688 612h-410v116h410v-116zM34 256c0 186 145 269 447 269c301 0 447 -83 447 -269s-146 -269 -447 -269c-302 0 -447 83 -447 269zM223 256c0 -79 54 -110 258 -110s258 31 258 110s-54 110 -258 110s-258 -31 -258 -110z" />
    <glyph glyph-name="racute" unicode="&#x155;" horiz-adv-x="634" 
d="M392 747h234l-195 -152h-182zM54 0v510h166l15 -87c104 54 234 100 375 100v-170c-143 0 -250 -17 -367 -59v-294h-189z" />
    <glyph glyph-name="rcaron" unicode="&#x159;" horiz-adv-x="634" 
d="M598 747l-165 -153h-172l-165 153h170l81 -70l81 70h170zM54 0v510h166l15 -87c104 54 234 100 375 100v-170c-143 0 -250 -17 -367 -59v-294h-189z" />
    <glyph glyph-name="rcommaaccent" unicode="&#x157;" horiz-adv-x="634" 
d="M54 0v510h166l15 -87c104 54 234 100 375 100v-170c-143 0 -250 -17 -367 -59v-294h-189zM39 -57h190l-136 -152h-151z" />
    <glyph glyph-name="scaron" unicode="&#x161;" horiz-adv-x="821" 
d="M656 747l-165 -153h-172l-165 153h170l81 -70l81 70h170zM798 145c0 -125 -113 -159 -363 -159c-155 0 -311 24 -391 44l32 122c89 -19 239 -40 393 -40c118 0 153 6 153 34c0 30 -28 34 -105 39l-249 14c-172 9 -234 56 -234 167c0 130 134 159 380 159
c118 0 273 -20 352 -33l-28 -123c-105 19 -241 33 -368 33c-126 0 -160 -6 -160 -34c0 -29 26 -32 78 -35l249 -15c171 -10 261 -51 261 -173z" />
    <glyph glyph-name="sacute" unicode="&#x15b;" horiz-adv-x="821" 
d="M450 747h234l-196 -152h-181zM798 145c0 -125 -113 -159 -363 -159c-155 0 -311 24 -391 44l32 122c89 -19 239 -40 393 -40c118 0 153 6 153 34c0 30 -28 34 -105 39l-249 14c-172 9 -234 56 -234 167c0 130 134 159 380 159c118 0 273 -20 352 -33l-28 -123
c-105 19 -241 33 -368 33c-126 0 -160 -6 -160 -34c0 -29 26 -32 78 -35l249 -15c171 -10 261 -51 261 -173z" />
    <glyph glyph-name="scedilla" unicode="&#x15f;" horiz-adv-x="821" 
d="M798 145c0 -125 -113 -159 -363 -159c-155 0 -311 24 -391 44l32 122c89 -19 239 -40 393 -40c118 0 153 6 153 34c0 30 -28 34 -105 39l-249 14c-172 9 -234 56 -234 167c0 130 134 159 380 159c118 0 273 -20 352 -33l-28 -123c-105 19 -241 33 -368 33
c-126 0 -160 -6 -160 -34c0 -29 26 -32 78 -35l249 -15c171 -10 261 -51 261 -173zM395 -41h115v-33c0 -101 -39 -140 -156 -140c-48 0 -104 9 -135 18l23 98c30 -6 69 -12 99 -12c37 0 54 8 54 44v25z" />
    <glyph glyph-name="scircumflex" unicode="&#x15d;" horiz-adv-x="821" 
d="M655 594h-170l-81 69l-81 -69h-170l166 153h171zM798 145c0 -125 -113 -159 -363 -159c-155 0 -311 24 -391 44l32 122c89 -19 239 -40 393 -40c118 0 153 6 153 34c0 30 -28 34 -105 39l-249 14c-172 9 -234 56 -234 167c0 130 134 159 380 159c118 0 273 -20 352 -33
l-28 -123c-105 19 -241 33 -368 33c-126 0 -160 -6 -160 -34c0 -29 26 -32 78 -35l249 -15c171 -10 261 -51 261 -173z" />
    <glyph glyph-name="tbar" unicode="&#x167;" horiz-adv-x="770" 
d="M713 217h-397c6 -71 45 -93 155 -93c97 0 177 15 252 30l31 -129c-81 -20 -189 -39 -300 -39c-208 0 -319 61 -328 231h-110v109h109v75h-109v109h114l33 132h152v-132h398v-109h-398v-75h398v-109z" />
    <glyph glyph-name="tcaron" unicode="&#x165;" horiz-adv-x="758" 
d="M457 673v15h-73v167h165v-186c0 -64 -38 -104 -121 -104c-20 0 -40 3 -58 7l12 78c15 -1 27 -3 39 -3c28 0 36 6 36 26zM118 240v118h-109v152h114l33 132h152v-132h398v-152h-398v-98c0 -89 36 -114 156 -114c97 0 172 14 247 29l36 -150c-81 -20 -189 -39 -300 -39
c-217 0 -329 67 -329 254z" />
    <glyph glyph-name="uacute" unicode="&#xfa;" horiz-adv-x="904" 
d="M525 747h234l-195 -152h-182zM42 226v284h188v-252c0 -78 54 -115 161 -115c76 0 171 17 278 47v320h188v-510h-165l-11 61c-105 -41 -228 -75 -352 -75c-185 0 -287 70 -287 240z" />
    <glyph glyph-name="ucircumflex" unicode="&#xfb;" horiz-adv-x="904" 
d="M731 594h-170l-81 69l-82 -69h-169l165 153h171zM42 226v284h188v-252c0 -78 54 -115 161 -115c76 0 171 17 278 47v320h188v-510h-165l-11 61c-105 -41 -228 -75 -352 -75c-185 0 -287 70 -287 240z" />
    <glyph glyph-name="udieresis" unicode="&#xfc;" horiz-adv-x="904" 
d="M431 743v-155h-165v155h165zM692 743v-155h-165v155h165zM42 226v284h188v-252c0 -78 54 -115 161 -115c76 0 171 17 278 47v320h188v-510h-165l-11 61c-105 -41 -228 -75 -352 -75c-185 0 -287 70 -287 240z" />
    <glyph glyph-name="ugrave" unicode="&#xf9;" horiz-adv-x="904" 
d="M388 595l-194 152h234l141 -152h-181zM42 226v284h188v-252c0 -78 54 -115 161 -115c76 0 171 17 278 47v320h188v-510h-165l-11 61c-105 -41 -228 -75 -352 -75c-185 0 -287 70 -287 240z" />
    <glyph glyph-name="ubreve" unicode="&#x16d;" horiz-adv-x="904" 
d="M558 745h139c0 -104 -65 -160 -218 -160s-219 56 -219 160h139c0 -46 19 -65 80 -65s79 19 79 65zM42 226v284h188v-252c0 -78 54 -115 161 -115c76 0 171 17 278 47v320h188v-510h-165l-11 61c-105 -41 -228 -75 -352 -75c-185 0 -287 70 -287 240z" />
    <glyph glyph-name="uhungarumlaut" unicode="&#x171;" horiz-adv-x="904" 
d="M364 747h196l-153 -152h-147zM635 747h196l-174 -152h-147zM42 226v284h188v-252c0 -78 54 -115 161 -115c76 0 171 17 278 47v320h188v-510h-165l-11 61c-105 -41 -228 -75 -352 -75c-185 0 -287 70 -287 240z" />
    <glyph glyph-name="umacron" unicode="&#x16b;" horiz-adv-x="904" 
d="M685 615h-410v115h410v-115zM42 226v284h188v-252c0 -78 54 -115 161 -115c76 0 171 17 278 47v320h188v-510h-165l-11 61c-105 -41 -228 -75 -352 -75c-185 0 -287 70 -287 240z" />
    <glyph glyph-name="uogonek" unicode="&#x173;" horiz-adv-x="904" 
d="M42 226v284h188v-252c0 -78 54 -115 161 -115c76 0 171 17 278 47v320h188v-510h1c-51 -24 -116 -63 -116 -94c0 -16 13 -21 29 -21c28 0 72 12 105 26l28 -87c-43 -21 -93 -39 -156 -39c-77 0 -116 29 -116 83c0 53 66 111 125 132h-65l-11 61
c-105 -41 -228 -75 -352 -75c-185 0 -287 70 -287 240z" />
    <glyph glyph-name="uring" unicode="&#x16f;" horiz-adv-x="904" 
d="M479 588c-106 0 -155 37 -155 112c0 72 49 109 155 109s154 -37 154 -109c0 -75 -48 -112 -154 -112zM410 700c0 -28 13 -43 69 -43s68 15 68 43c0 25 -12 39 -68 39s-69 -14 -69 -39zM42 226v284h188v-252c0 -78 54 -115 161 -115c76 0 171 17 278 47v320h188v-510h-165
l-11 61c-105 -41 -228 -75 -352 -75c-185 0 -287 70 -287 240z" />
    <glyph glyph-name="utilde" unicode="&#x169;" horiz-adv-x="904" 
d="M281 598v106c24 14 62 30 105 30c82 0 149 -31 212 -31c40 0 63 13 92 30v-109c-20 -14 -48 -28 -90 -28c-73 0 -144 32 -216 32c-46 0 -75 -12 -103 -30zM42 226v284h188v-252c0 -78 54 -115 161 -115c76 0 171 17 278 47v320h188v-510h-165l-11 61
c-105 -41 -228 -75 -352 -75c-185 0 -287 70 -287 240z" />
    <glyph glyph-name="wacute" unicode="&#x1e83;" horiz-adv-x="1364" 
d="M719 747h234l-195 -152h-182zM557 510h238l197 -356l168 356h200l-261 -510h-218l-209 373l-209 -373h-217l-243 510h197l164 -354z" />
    <glyph glyph-name="wcircumflex" unicode="&#x175;" horiz-adv-x="1364" 
d="M925 594h-170l-81 69l-82 -69h-169l165 153h171zM557 510h238l197 -356l168 356h200l-261 -510h-218l-209 373l-209 -373h-217l-243 510h197l164 -354z" />
    <glyph glyph-name="wdieresis" unicode="&#x1e85;" horiz-adv-x="1364" 
d="M625 743v-155h-165v155h165zM886 743v-155h-165v155h165zM557 510h238l197 -356l168 356h200l-261 -510h-218l-209 373l-209 -373h-217l-243 510h197l164 -354z" />
    <glyph glyph-name="wgrave" unicode="&#x1e81;" horiz-adv-x="1364" 
d="M582 595l-194 152h234l141 -152h-181zM557 510h238l197 -356l168 356h200l-261 -510h-218l-209 373l-209 -373h-217l-243 510h197l164 -354z" />
    <glyph glyph-name="yacute" unicode="&#xfd;" horiz-adv-x="921" 
d="M516 747h234l-195 -152h-181zM42 298v212h188v-183c0 -84 41 -115 182 -115c84 0 174 9 270 27v271h189v-397c0 -232 -130 -308 -417 -308c-129 0 -273 19 -374 47l33 144c118 -29 234 -45 354 -45c173 0 232 41 224 153l-2 5c-96 -28 -209 -52 -322 -52
c-238 0 -325 73 -325 241z" />
    <glyph glyph-name="ydieresis" unicode="&#xff;" horiz-adv-x="921" 
d="M423 743v-155h-166v155h166zM684 743v-155h-166v155h166zM42 298v212h188v-183c0 -84 41 -115 182 -115c84 0 174 9 270 27v271h189v-397c0 -232 -130 -308 -417 -308c-129 0 -273 19 -374 47l33 144c118 -29 234 -45 354 -45c173 0 232 41 224 153l-2 5
c-96 -28 -209 -52 -322 -52c-238 0 -325 73 -325 241z" />
    <glyph glyph-name="ycircumflex" unicode="&#x177;" horiz-adv-x="921" 
d="M722 594h-170l-81 69l-81 -69h-170l165 153h172zM42 298v212h188v-183c0 -84 41 -115 182 -115c84 0 174 9 270 27v271h189v-397c0 -232 -130 -308 -417 -308c-129 0 -273 19 -374 47l33 144c118 -29 234 -45 354 -45c173 0 232 41 224 153l-2 5
c-96 -28 -209 -52 -322 -52c-238 0 -325 73 -325 241z" />
    <glyph glyph-name="ygrave" unicode="&#x1ef3;" horiz-adv-x="921" 
d="M379 595l-194 152h234l142 -152h-182zM42 298v212h188v-183c0 -84 41 -115 182 -115c84 0 174 9 270 27v271h189v-397c0 -232 -130 -308 -417 -308c-129 0 -273 19 -374 47l33 144c118 -29 234 -45 354 -45c173 0 232 41 224 153l-2 5c-96 -28 -209 -52 -322 -52
c-238 0 -325 73 -325 241z" />
    <glyph glyph-name="zcaron" unicode="&#x17e;" horiz-adv-x="862" 
d="M689 747l-166 -153h-171l-165 153h169l82 -70l81 70h170zM824 130v-130h-786v130l253 140c111 55 256 94 318 109h-561v131h776v-131l-225 -128c-132 -69 -275 -105 -329 -121h554z" />
    <glyph glyph-name="zacute" unicode="&#x17a;" horiz-adv-x="862" 
d="M482 747h234l-195 -152h-181zM824 130v-130h-786v130l253 140c111 55 256 94 318 109h-561v131h776v-131l-225 -128c-132 -69 -275 -105 -329 -121h554z" />
    <glyph glyph-name="zdotaccent" unicode="&#x17c;" horiz-adv-x="862" 
d="M531 737v-156h-189v156h189zM824 130v-130h-786v130l253 140c111 55 256 94 318 109h-561v131h776v-131l-225 -128c-132 -69 -275 -105 -329 -121h554z" />
    <glyph glyph-name="acute" unicode="&#xb4;" horiz-adv-x="479" 
d="M252 739h234l-196 -151h-181z" />
    <glyph glyph-name="grave" unicode="`" horiz-adv-x="479" 
d="M255 588l-194 151h234l142 -151h-182z" />
    <glyph glyph-name="circumflex" unicode="&#x2c6;" horiz-adv-x="500" 
d="M501 586h-170l-81 70l-81 -70h-170l165 153h171z" />
    <glyph glyph-name="caron" unicode="&#x2c7;" horiz-adv-x="500" 
d="M501 739l-166 -153h-171l-165 153h170l81 -69l81 69h170z" />
    <glyph glyph-name="tilde" unicode="&#x2dc;" horiz-adv-x="500" 
d="M45 591v105c25 15 63 31 106 31c82 0 149 -31 211 -31c41 0 64 13 93 30v-109c-20 -14 -48 -29 -90 -29c-73 0 -144 33 -216 33c-46 0 -75 -13 -104 -30z" />
    <glyph glyph-name="dieresis" unicode="&#xa8;" horiz-adv-x="515" 
d="M209 736v-155h-165v155h165zM471 736v-155h-166v155h166z" />
    <glyph glyph-name="ring" unicode="&#x2da;" horiz-adv-x="397" 
d="M199 577c-106 0 -155 37 -155 112c0 72 49 109 155 109s154 -37 154 -109c0 -75 -48 -112 -154 -112zM130 689c0 -28 14 -42 69 -42c56 0 68 14 68 42c0 25 -12 39 -68 39c-55 0 -69 -14 -69 -39z" />
    <glyph glyph-name="cedilla" unicode="&#xb8;" horiz-adv-x="378" 
d="M220 -41h114v-33c0 -101 -38 -140 -156 -140c-47 0 -103 9 -134 18l23 98c30 -6 69 -12 99 -12c37 0 54 8 54 44v25z" />
    <glyph glyph-name="hungarumlaut" unicode="&#x2dd;" horiz-adv-x="659" 
d="M148 739h196l-154 -151h-146zM419 739h196l-175 -151h-146z" />
    <glyph glyph-name="breve" unicode="&#x2d8;" horiz-adv-x="525" 
d="M342 738h139c0 -104 -65 -160 -218 -160s-219 56 -219 160h139c0 -46 19 -65 80 -65s79 19 79 65z" />
    <glyph glyph-name="macron" unicode="&#xaf;" horiz-adv-x="498" 
d="M454 608h-410v115h410v-115z" />
    <glyph glyph-name="dotaccent" unicode="&#x2d9;" horiz-adv-x="299" 
d="M244 730v-156h-189v156h189z" />
    <glyph glyph-name="periodcentered" unicode="&#xb7;" horiz-adv-x="284" 
d="M240 464v-200h-196v200h196z" />
    <glyph glyph-name="ogonek" unicode="&#x2db;" horiz-adv-x="359" 
d="M170 1l98 -1c-51 -24 -115 -63 -115 -94c0 -16 12 -21 29 -21c27 0 71 12 104 26l28 -87c-43 -21 -93 -39 -156 -39c-77 0 -115 29 -115 83c0 53 65 111 127 133z" />
    <glyph glyph-name="commaaccentcomb" unicode="&#x326;" horiz-adv-x="378" 
d="M150 -57h189l-135 -152h-151z" />
    <glyph glyph-name="caron.alt" unicode="&#xe189;" horiz-adv-x="287" 
d="M134 501v14h-73v167h165v-185c0 -65 -38 -104 -121 -104c-19 0 -40 2 -57 6l11 79c15 -2 27 -3 39 -3c29 0 36 5 36 26z" />
    <glyph glyph-name="period" unicode="." horiz-adv-x="284" 
d="M240 200v-200h-196v200h196z" />
    <glyph glyph-name="comma" unicode="," horiz-adv-x="284" 
d="M28 -138l13 93c18 -2 33 -4 46 -4c34 0 43 7 43 32v17h-86v200h196v-222c0 -77 -46 -124 -145 -124c-22 0 -47 3 -67 8z" />
    <glyph glyph-name="colon" unicode=":" horiz-adv-x="298" 
d="M247 510v-200h-196v200h196zM247 200v-200h-196v200h196z" />
    <glyph glyph-name="semicolon" unicode=";" horiz-adv-x="298" 
d="M247 510v-200h-196v200h196zM35 -138l13 93c18 -2 33 -4 46 -4c35 0 43 7 43 32v17h-86v200h196v-222c0 -77 -46 -124 -144 -124c-23 0 -47 3 -68 8z" />
    <glyph glyph-name="ellipsis" unicode="&#x2026;" horiz-adv-x="848" 
d="M240 200v-200h-196v200h196zM522 200v-200h-196v200h196zM804 200v-200h-196v200h196z" />
    <glyph glyph-name="question" unicode="?" horiz-adv-x="822" 
d="M479 256h-301v133h292c81 0 115 15 115 66c0 55 -39 67 -162 67c-136 0 -269 -12 -372 -27l-27 156c123 20 252 34 385 34c277 0 379 -60 379 -215c0 -138 -89 -214 -309 -214zM371 185v-185h-196v185h196z" />
    <glyph glyph-name="exclam" unicode="!" horiz-adv-x="286" 
d="M242 487l-24 -239h-150l-24 239v195h198v-195zM240 200v-200h-195v200h195z" />
    <glyph glyph-name="questiondown" unicode="&#xbf;" horiz-adv-x="822" 
d="M451 317v193h196v-193h-196zM343 246h301v-126h-292c-81 0 -115 -14 -115 -66c0 -54 39 -66 162 -66c136 0 269 12 372 26l27 -155c-123 -21 -252 -34 -385 -34c-277 0 -379 60 -379 215c0 138 89 206 309 206z" />
    <glyph glyph-name="exclamdown" unicode="&#xa1;" horiz-adv-x="286" 
d="M45 310v200h196v-200h-196zM44 23l24 239h150l24 -239v-195h-198v195z" />
    <glyph glyph-name="parenleft" unicode="(" horiz-adv-x="470" 
d="M282 777l122 -74c-69 -105 -137 -234 -137 -416c0 -181 68 -310 137 -415l-122 -74c-95 115 -199 295 -199 489c0 195 104 375 199 490z" />
    <glyph glyph-name="parenright" unicode=")" horiz-adv-x="470" 
d="M202 287c0 182 -67 311 -136 416l122 74c94 -115 199 -295 199 -490c0 -194 -105 -374 -199 -489l-122 74c69 105 136 234 136 415z" />
    <glyph glyph-name="braceleft" unicode="{" horiz-adv-x="594" 
d="M23 203v179c96 0 142 16 142 98v69c0 141 86 211 246 211c63 0 125 -8 161 -16l-22 -157c-36 6 -76 12 -108 12c-72 0 -107 -20 -107 -88v-77c0 -77 -34 -129 -123 -141c89 -12 123 -64 123 -141v-78c0 -68 35 -88 107 -88c32 0 72 7 108 12l22 -157
c-36 -6 -98 -16 -161 -16c-160 0 -246 71 -246 211v70c0 81 -46 97 -142 97z" />
    <glyph glyph-name="braceright" unicode="}" horiz-adv-x="594" 
d="M572 382v-179c-96 0 -143 -16 -143 -97v-70c0 -140 -86 -211 -245 -211c-64 0 -126 10 -161 16l21 157c36 -5 76 -12 109 -12c72 0 107 20 107 88v78c0 77 34 129 123 141c-89 12 -123 64 -123 141v77c0 68 -35 88 -107 88c-33 0 -73 -6 -109 -12l-21 157
c35 8 97 16 161 16c159 0 245 -70 245 -211v-69c0 -82 47 -98 143 -98z" />
    <glyph glyph-name="bracketleft" unicode="[" horiz-adv-x="492" 
d="M433 -164h-339v914h339v-139h-169v-636h169v-139z" />
    <glyph glyph-name="bracketright" unicode="]" horiz-adv-x="492" 
d="M398 -164h-339v139h169v636h-169v139h339v-914z" />
    <glyph glyph-name="slash" unicode="/" horiz-adv-x="632" 
d="M633 699l-469 -864h-166l469 864h166z" />
    <glyph glyph-name="backslash" unicode="\" horiz-adv-x="632" 
d="M633 -165h-166l-469 864h166z" />
    <glyph glyph-name="underscore" unicode="_" horiz-adv-x="801" 
d="M763 -155h-725v120h725v-120z" />
    <glyph glyph-name="hyphen" unicode="-" horiz-adv-x="533" 
d="M495 193h-457v148h457v-148z" />
    <glyph glyph-name="endash" unicode="&#x2013;" horiz-adv-x="577" 
d="M538 193h-500v148h500v-148z" />
    <glyph glyph-name="emdash" unicode="&#x2014;" horiz-adv-x="1077" 
d="M1038 193h-1000v148h1000v-148z" />
    <glyph glyph-name="brokenbar" unicode="&#xa6;" horiz-adv-x="224" 
d="M170 737v-340h-116v340h116zM54 -165v340h116v-340h-116z" />
    <glyph glyph-name="bar" unicode="|" horiz-adv-x="260" 
d="M207 -165h-153v911h153v-911z" />
    <glyph glyph-name="guillemotleft" unicode="&#xab;" horiz-adv-x="825" 
d="M403 -5l-366 177v174l366 177v-155l-229 -109l229 -109v-155zM789 -5l-367 177v174l367 177v-155l-229 -109l229 -109v-155z" />
    <glyph glyph-name="guillemotright" unicode="&#xbb;" horiz-adv-x="825" 
d="M422 523l367 -177v-174l-367 -177v155l229 109l-229 109v155zM37 523l366 -177v-174l-366 -177v155l228 109l-228 109v155z" />
    <glyph glyph-name="guilsinglleft" unicode="&#x2039;" horiz-adv-x="440" 
d="M403 -5l-366 177v174l366 177v-155l-229 -109l229 -109v-155z" />
    <glyph glyph-name="guilsinglright" unicode="&#x203a;" horiz-adv-x="440" 
d="M37 523l366 -177v-174l-366 -177v155l228 109l-228 109v155z" />
    <glyph glyph-name="quotesinglbase" unicode="&#x201a;" horiz-adv-x="287" 
d="M28 -138l14 93c17 -2 32 -4 45 -4c35 0 43 7 43 32v17h-86v200h196v-222c0 -77 -46 -124 -144 -124c-23 0 -47 3 -68 8z" />
    <glyph glyph-name="quotedblbase" unicode="&#x201e;" horiz-adv-x="547" 
d="M28 -138l14 93c17 -2 32 -4 45 -4c35 0 43 7 43 32v17h-86v200h196v-222c0 -77 -46 -124 -144 -124c-23 0 -47 3 -68 8zM288 -138l13 93c18 -2 33 -4 46 -4c34 0 43 7 43 32v17h-86v200h196v-222c0 -77 -46 -124 -145 -124c-22 0 -46 3 -67 8z" />
    <glyph glyph-name="quoteleft" unicode="&#x2018;" horiz-adv-x="287" 
d="M259 757l-14 -94c-17 2 -32 4 -45 4c-35 0 -44 -6 -44 -31v-18h87v-199h-196v222c0 77 45 123 144 123c23 0 47 -2 68 -7z" />
    <glyph glyph-name="quotedblleft" unicode="&#x201c;" horiz-adv-x="547" 
d="M259 757l-14 -94c-17 2 -32 4 -45 4c-35 0 -44 -6 -44 -31v-18h87v-199h-196v222c0 77 45 123 144 123c23 0 47 -2 68 -7zM518 757l-13 -94c-17 2 -32 4 -46 4c-34 0 -43 -6 -43 -31v-18h86v-199h-195v222c0 77 45 123 144 123c23 0 47 -2 67 -7z" />
    <glyph glyph-name="quoteright" unicode="&#x2019;" horiz-adv-x="287" 
d="M28 412l14 94c17 -3 32 -4 45 -4c35 0 43 6 43 31v17h-86v200h196v-222c0 -77 -46 -123 -144 -123c-23 0 -47 2 -68 7z" />
    <glyph glyph-name="quotedblright" unicode="&#x201d;" horiz-adv-x="547" 
d="M28 412l14 94c17 -3 32 -4 45 -4c35 0 43 6 43 31v17h-86v200h196v-222c0 -77 -46 -123 -144 -123c-23 0 -47 2 -68 7zM288 412l13 94c18 -3 33 -4 46 -4c34 0 43 6 43 31v17h-86v200h196v-222c0 -77 -46 -123 -145 -123c-22 0 -46 2 -67 7z" />
    <glyph glyph-name="quotesingle" unicode="'" horiz-adv-x="277" 
d="M60 460l-16 163v127h189v-127l-16 -163h-157z" />
    <glyph glyph-name="quotedbl" unicode="&#x22;" horiz-adv-x="541" 
d="M60 460l-16 163v127h189v-127l-16 -163h-157zM324 460l-16 163v127h189v-127l-16 -163h-157z" />
    <glyph glyph-name="bullet" unicode="&#x2022;" horiz-adv-x="445" 
d="M223 185c-120 0 -169 36 -169 127c0 89 49 126 169 126s168 -37 168 -126c0 -91 -48 -127 -168 -127z" />
    <glyph glyph-name="ampersand" unicode="&#x26;" horiz-adv-x="1157" 
d="M1132 273h-130v-228c-126 -31 -289 -58 -509 -58c-343 0 -445 59 -445 194c0 77 39 128 125 155c-73 26 -114 79 -114 161c0 136 125 195 420 195c171 0 331 -13 456 -37l-31 -163c-106 15 -264 26 -418 26c-180 0 -239 -7 -239 -59c0 -45 39 -54 129 -54h756v-132z
M521 153c129 0 236 11 311 23v97h-452c-107 0 -142 -12 -142 -57c0 -50 46 -63 283 -63z" />
    <glyph glyph-name="paragraph" unicode="&#xb6;" horiz-adv-x="977" 
d="M37 504c0 139 110 190 334 190c113 0 233 -6 305 -12v-682h-123v314c-62 -5 -125 -8 -202 -8c-200 0 -314 54 -314 198zM895 682v-682h-123v682h123z" />
    <glyph glyph-name="dagger" unicode="&#x2020;" horiz-adv-x="810" 
d="M304 342h-274v168h274v172h203v-172h273v-168h-273v-509h-203v509z" />
    <glyph glyph-name="daggerdbl" unicode="&#x2021;" horiz-adv-x="810" 
d="M304 5h-274v168h274v169h-274v168h274v172h203v-172h273v-168h-273v-169h273v-168h-273v-172h-203v172z" />
    <glyph glyph-name="section" unicode="&#xa7;" horiz-adv-x="832" 
d="M418 -11c-118 0 -273 18 -352 31l28 140c105 -19 241 -37 368 -37c125 0 160 7 160 41c0 29 -26 34 -78 38l-311 23c-130 10 -199 32 -199 109c0 65 55 93 135 104c-81 11 -135 49 -135 116c0 106 127 139 380 139c118 0 273 -18 352 -31l-28 -140
c-106 20 -246 37 -375 37c-119 0 -153 -7 -153 -41c0 -29 26 -34 78 -38l311 -23c130 -10 199 -30 199 -105c0 -68 -54 -98 -135 -108c81 -11 135 -49 135 -116c0 -106 -127 -139 -380 -139zM287 305l249 -18c72 -5 100 7 100 45c0 31 -27 39 -91 44l-250 18
c-71 5 -99 -6 -99 -44c0 -32 26 -40 91 -45z" />
    <glyph glyph-name="asterisk" unicode="*" horiz-adv-x="590" 
d="M144 394l86 76l-115 13l-85 28l39 122l86 -28l101 -58l-24 114v89h128v-90l-24 -113l100 58l85 28l40 -122l-86 -28l-114 -12l85 -78l53 -73l-104 -75l-52 73l-47 106l-49 -107l-52 -72l-103 75z" />
    <glyph glyph-name="trademark" unicode="&#x2122;" horiz-adv-x="2102" 
d="M1175 292h-208v390h268l273 -256l273 256h267v-390h-208v218l-227 -218h-210l-228 218v-218zM349 521h-317v161h843v-161h-317v-229h-209v229z" />
    <glyph glyph-name="registered" unicode="&#xae;" horiz-adv-x="1200" 
d="M600 695c385 0 543 -122 543 -369c0 -246 -158 -369 -543 -369c-383 0 -543 123 -543 370c0 246 160 368 543 368zM600 54c337 0 435 74 435 272s-98 272 -435 272c-335 0 -435 -74 -435 -271c0 -199 100 -273 435 -273zM474 249v-119h-140v390h364
c138 0 202 -27 202 -138c0 -98 -70 -128 -178 -128l66 -47l102 -77h-172l-146 119h-98zM693 419h-219v-91h219c49 0 68 12 68 46s-19 45 -68 45z" />
    <glyph glyph-name="copyright" unicode="&#xa9;" horiz-adv-x="1200" 
d="M600 695c385 0 543 -122 543 -369c0 -246 -158 -369 -543 -369c-383 0 -543 123 -543 370c0 246 160 368 543 368zM600 54c337 0 435 88 435 272s-98 272 -435 272c-335 0 -435 -88 -435 -271c0 -185 100 -273 435 -273zM878 381c-67 13 -178 22 -282 22
c-155 0 -197 -18 -197 -78s42 -77 197 -77c104 0 215 9 282 22l18 -109c-89 -19 -201 -32 -300 -32c-248 0 -339 58 -339 196c0 139 91 196 339 196c99 0 211 -13 300 -31z" />
    <glyph glyph-name="at" unicode="@" horiz-adv-x="1426" 
d="M998 -198c-103 -28 -213 -41 -332 -41c-408 0 -625 164 -625 474c0 335 287 472 678 472c365 0 666 -105 666 -430c0 -176 -87 -275 -250 -275c-103 0 -174 29 -211 84c-95 -46 -213 -85 -336 -85c-162 0 -281 66 -281 224c0 177 141 236 349 236c163 0 296 -16 406 -33
v-192c0 -76 30 -103 93 -103c67 0 89 40 89 137c0 189 -126 306 -533 306c-366 0 -529 -125 -529 -340c0 -220 133 -345 472 -345c116 0 227 17 322 43zM894 199v115c-77 7 -171 12 -255 12c-111 0 -164 -29 -164 -95c0 -65 42 -91 138 -91c81 0 178 16 281 47v12z" />
    <glyph glyph-name="ordfeminine" unicode="&#xaa;" horiz-adv-x="706" 
d="M529 319l-9 47c-74 -31 -159 -55 -243 -55c-142 0 -236 50 -236 188c0 148 117 194 287 194c128 0 240 -15 329 -30v-344h-128zM316 581c-83 0 -132 -16 -132 -79c0 -60 41 -76 118 -76c60 0 133 10 211 32v110c-63 8 -135 13 -197 13z" />
    <glyph glyph-name="ordmasculine" unicode="&#xba;" horiz-adv-x="686" 
d="M645 498c0 -137 -108 -194 -301 -194c-194 0 -303 57 -303 194s109 194 303 194c193 0 301 -57 301 -194zM502 497c0 62 -39 84 -158 84s-160 -23 -160 -84c0 -60 40 -82 159 -82s159 22 159 82z" />
    <glyph glyph-name="numbersign" unicode="#" horiz-adv-x="1144" 
d="M71 249h196l38 155h-196l27 111h196l34 137h147l-34 -137h277l34 137h147l-34 -137h197l-27 -111h-197l-38 -155h197l-27 -111h-197l-34 -138h-147l34 138h-277l-34 -138h-147l34 138h-196zM414 249h277l38 155h-277z" />
    <glyph glyph-name="Euro" unicode="&#x20ac;" horiz-adv-x="1151" 
d="M123 340v18h-120v110h139c49 147 198 224 495 224c165 0 340 -16 480 -49l-33 -154c-117 23 -282 44 -440 44c-151 0 -234 -21 -277 -65h430v-110h-471v-18v-19h471v-111h-429c44 -43 127 -63 276 -63c158 0 323 21 440 43l33 -154c-140 -33 -315 -49 -480 -49
c-296 0 -445 77 -495 223h-139v111h120v19z" />
    <glyph glyph-name="dollar" unicode="$" horiz-adv-x="1029" 
d="M580 782v-92c116 -6 260 -22 366 -45l-32 -153c-87 17 -207 32 -334 38v-110l115 -7c196 -10 285 -79 285 -220c0 -138 -92 -202 -400 -207v-93h-138v96c-142 7 -288 27 -388 51l29 163c103 -22 222 -42 359 -52v116l-109 6c-213 10 -290 78 -290 205
c0 145 120 208 399 214v90h138zM323 435l119 -7v106c-179 0 -207 -9 -207 -51c0 -38 27 -43 88 -48zM709 251l-129 8v-113h18c160 0 190 12 190 53c0 43 -25 47 -79 52z" />
    <glyph glyph-name="yen" unicode="&#xa5;" horiz-adv-x="1131" 
d="M998 78h-332v-78h-203v78h-330v117h330v52h-330v117h210l-342 318h260l306 -276l306 276h256l-342 -318h211v-117h-332v-52h332v-117z" />
    <glyph glyph-name="sterling" unicode="&#xa3;" horiz-adv-x="1178" 
d="M37 -14v165c40 19 86 30 137 36v85h-137v124h139c18 191 165 289 497 289c158 0 318 -20 454 -52l-37 -168c-109 21 -258 47 -410 47c-199 0 -280 -33 -299 -116h566v-124h-570v-86c150 -12 311 -40 456 -40c107 0 185 19 259 39l44 -157c-74 -32 -181 -49 -300 -49
c-192 0 -398 48 -572 48c-88 0 -154 -14 -227 -41z" />
    <glyph glyph-name="cent" unicode="&#xa2;" horiz-adv-x="845" 
d="M34 303c0 169 107 252 356 265v114h138v-113c107 -5 209 -21 287 -39l-38 -151c-59 12 -138 25 -249 29v-212c111 4 190 17 249 29l38 -151c-78 -19 -179 -34 -287 -38v-114h-138v115c-249 13 -356 97 -356 266zM223 303c0 -76 45 -103 167 -108v214
c-122 -5 -167 -32 -167 -106z" />
    <glyph glyph-name="florin" unicode="&#x192;" horiz-adv-x="992" 
d="M368 78l26 149h-259l27 152h259l24 133c32 182 151 252 360 252c99 0 201 -11 273 -22l-34 -145c-66 10 -167 20 -237 20c-112 0 -157 -31 -174 -126l-20 -112h292l-27 -152h-292l-30 -169c-31 -179 -152 -252 -363 -252c-98 0 -198 11 -270 22l34 145
c67 -11 156 -21 242 -21c108 0 153 36 169 126z" />
    <glyph glyph-name="currency" unicode="&#xa4;" horiz-adv-x="867" 
d="M85 301c0 83 33 145 108 182l-107 101h159l70 -66c35 5 75 8 120 8c43 0 82 -3 117 -7l70 65h159l-107 -100c76 -38 109 -100 109 -183c0 -82 -33 -144 -109 -182l107 -101h-153l-70 67c-36 -6 -77 -9 -123 -9c-48 0 -90 3 -127 9l-70 -67h-152l107 101
c-75 38 -108 101 -108 182zM623 301c0 72 -53 101 -187 101c-135 0 -190 -29 -190 -101s55 -101 188 -101c135 0 189 29 189 101z" />
    <glyph glyph-name="zero" unicode="0" horiz-adv-x="1193" 
d="M1151 341c0 -247 -179 -355 -554 -355c-376 0 -555 108 -555 355s179 355 555 355c375 0 554 -108 554 -355zM948 341c0 138 -99 181 -351 181c-253 0 -352 -43 -352 -181s99 -181 352 -181c252 0 351 43 351 181z" />
    <glyph glyph-name="one" unicode="1" horiz-adv-x="565" 
d="M480 0h-203v367c0 40 2 84 5 118l-252 -76v173l261 100h189v-682z" />
    <glyph glyph-name="two" unicode="2" horiz-adv-x="1040" 
d="M788 448c0 59 -63 75 -198 75c-173 0 -371 -28 -519 -57l-34 170c155 34 352 60 517 60c300 0 437 -61 437 -214c0 -138 -94 -193 -289 -246l-254 -77c83 5 173 8 247 8h300v-167h-935v186l633 182c66 23 95 39 95 80z" />
    <glyph glyph-name="three" unicode="3" horiz-adv-x="1046" 
d="M1004 175c0 -127 -93 -189 -462 -189c-193 0 -366 15 -506 43l27 169c123 -17 309 -38 486 -38c201 0 252 9 252 58c0 46 -32 60 -117 60h-484v132h469c86 0 118 11 118 53c0 49 -48 60 -238 60c-181 0 -359 -15 -479 -31l-27 169c145 21 326 35 477 35
c348 0 470 -58 470 -201c0 -84 -48 -128 -137 -157c87 -26 151 -73 151 -163z" />
    <glyph glyph-name="four" unicode="4" horiz-adv-x="1136" 
d="M1097 291v-152h-155v-139h-203v139h-720v147l720 374h203v-369h155zM739 501l-316 -159l-157 -63c63 6 156 12 213 12h260v210z" />
    <glyph glyph-name="five" unicode="5" horiz-adv-x="1042" 
d="M951 523h-655l-19 -98l403 -5c212 -2 319 -48 319 -205c0 -165 -109 -229 -482 -229c-181 0 -347 14 -485 41l35 155c124 -22 299 -36 478 -36c213 0 258 16 258 67c0 50 -40 64 -149 65l-575 7l-11 11l73 386h810v-159z" />
    <glyph glyph-name="six" unicode="6" horiz-adv-x="1104" 
d="M1062 197c0 -160 -154 -211 -477 -211c-401 0 -544 120 -544 361c0 258 244 349 550 349c163 0 322 -24 435 -51l-32 -164c-103 24 -226 48 -403 48c-231 0 -332 -40 -351 -146c96 23 213 43 364 43c265 0 458 -44 458 -229zM596 288c-126 0 -241 -14 -344 -34
c33 -73 125 -102 335 -102c215 0 271 12 271 67c0 58 -56 69 -262 69z" />
    <glyph glyph-name="seven" unicode="7" horiz-adv-x="1032" 
d="M494 0h-254l364 391c55 58 107 103 173 130c-62 -7 -147 -10 -221 -10h-513v171h957v-152z" />
    <glyph glyph-name="eight" unicode="8" horiz-adv-x="1130" 
d="M565 696c381 0 490 -82 490 -191c0 -77 -41 -126 -105 -155c77 -30 121 -80 121 -161c0 -142 -129 -203 -506 -203s-505 61 -505 203c0 81 41 131 122 160c-67 30 -107 79 -107 156c0 109 109 191 490 191zM565 530c-246 0 -294 -19 -294 -63c0 -46 48 -61 294 -61
s294 15 294 61c0 44 -48 63 -294 63zM565 160c256 0 310 12 310 65s-58 65 -310 65c-251 0 -310 -12 -310 -65s54 -65 310 -65z" />
    <glyph glyph-name="nine" unicode="9" horiz-adv-x="1104" 
d="M1062 334c0 -258 -244 -348 -550 -348c-163 0 -323 23 -435 50l32 165c103 -25 226 -48 403 -48c232 0 332 40 351 145c-96 -22 -213 -43 -364 -43c-265 0 -458 43 -458 228c0 157 154 213 477 213c401 0 544 -121 544 -362zM507 393c126 0 241 14 344 34
c-33 73 -125 102 -335 102c-215 0 -271 -16 -271 -68c0 -58 56 -68 262 -68z" />
    <glyph glyph-name="degree" unicode="&#xb0;" horiz-adv-x="681" 
d="M342 696c199 0 302 -58 302 -201s-103 -204 -302 -204c-200 0 -305 61 -305 204s105 201 305 201zM190 495c0 -64 44 -81 151 -81c108 0 150 17 150 81c0 63 -42 80 -150 80c-106 0 -151 -17 -151 -80z" />
    <glyph glyph-name="percent" unicode="%" horiz-adv-x="1290" 
d="M38 535c0 117 89 161 255 161c167 0 254 -44 254 -161c0 -115 -87 -161 -254 -161c-166 0 -255 46 -255 161zM359 0h-176l726 682h177zM431 535c0 44 -28 60 -138 60s-139 -16 -139 -60c0 -45 29 -59 139 -59s138 14 138 59zM741 158c0 117 89 162 255 162
c167 0 254 -45 254 -162c0 -115 -87 -161 -254 -161c-166 0 -255 46 -255 161zM1134 158c0 45 -28 60 -138 60s-139 -15 -139 -60s29 -59 139 -59s138 14 138 59z" />
    <glyph glyph-name="perthousand" unicode="&#x2030;" horiz-adv-x="1846" 
d="M38 535c0 117 89 161 255 161c167 0 254 -44 254 -161c0 -115 -87 -161 -254 -161c-166 0 -255 46 -255 161zM363 0h-176l726 682h176zM431 535c0 44 -28 60 -138 60s-139 -16 -139 -60c0 -45 29 -59 139 -59s138 14 138 59zM1300 154c0 117 89 162 255 162
c167 0 254 -45 254 -162c0 -115 -87 -161 -254 -161c-166 0 -255 46 -255 161zM734 151c0 117 89 162 255 162s254 -45 254 -162c0 -115 -88 -161 -254 -161s-255 46 -255 161zM1693 154c0 45 -28 60 -138 60s-139 -15 -139 -60s29 -59 139 -59s138 14 138 59zM1127 151
c0 45 -28 60 -138 60s-139 -15 -139 -60s29 -59 139 -59s138 14 138 59z" />
    <glyph glyph-name="fraction" unicode="&#x2044;" horiz-adv-x="263" 
d="M-143 0h-177l726 682h177z" />
    <glyph glyph-name="zero.superior" unicode="&#x2070;" horiz-adv-x="586" 
d="M38 535c0 117 89 161 255 161c167 0 254 -44 254 -161c0 -115 -87 -161 -254 -161c-166 0 -255 46 -255 161zM431 535c0 44 -28 60 -138 60s-139 -16 -139 -60c0 -45 29 -59 139 -59s138 14 138 59z" />
    <glyph glyph-name="onesuperior" unicode="&#xb9;" horiz-adv-x="347" 
d="M301 377h-110v165c0 11 0 22 1 32l-146 -36v98l152 46h103v-305z" />
    <glyph glyph-name="twosuperior" unicode="&#xb2;" horiz-adv-x="566" 
d="M347 486l-118 -31c58 6 110 9 176 9h114v-82h-453v96l259 64c59 17 71 24 71 46c0 26 -27 32 -84 32c-82 0 -176 -13 -237 -23l-2 78c67 13 159 21 244 21c139 0 199 -33 199 -100c0 -69 -55 -84 -169 -110z" />
    <glyph glyph-name="threesuperior" unicode="&#xb3;" horiz-adv-x="563" 
d="M274 375c-76 0 -146 7 -208 19l2 76c54 -10 127 -18 207 -18c111 0 130 6 130 27c0 18 -11 24 -53 24h-217v69h215c42 0 53 7 53 24s-20 23 -126 23c-83 0 -149 -8 -200 -17l-1 75c63 13 140 19 215 19c158 0 214 -31 214 -91c0 -30 -15 -52 -44 -66
c31 -16 46 -40 46 -70c0 -63 -49 -94 -233 -94z" />
    <glyph glyph-name="four.superior" unicode="&#x2074;" horiz-adv-x="588" 
d="M481 356h-107v49h-339v73l339 183h107v-177h79v-79h-79v-49zM163 475v-3c44 8 110 12 151 12h60v80l-74 -37c-60 -24 -105 -42 -137 -52z" />
    <glyph glyph-name="onehalf" unicode="&#xbd;" horiz-adv-x="1198" 
d="M301 377h-110v165c0 11 0 22 1 32l-146 -36v98l152 46h103v-305zM239 0h-177l727 682h176zM981 104l-119 -31c59 6 110 9 177 9h113v-82h-452v96l258 64c60 17 71 25 71 46c0 26 -26 32 -84 32c-81 0 -175 -13 -237 -23l-1 78c67 13 159 21 244 21
c139 0 199 -33 199 -100c0 -69 -55 -84 -169 -110z" />
    <glyph glyph-name="onequarter" unicode="&#xbc;" horiz-adv-x="1160" 
d="M301 377h-110v165c0 11 0 22 1 32l-146 -36v98l152 46h103v-305zM239 0h-177l727 682h176zM1036 0h-107v49h-339v73l339 183h107v-177h79v-79h-79v-49zM718 119v-2c44 7 110 11 151 11h60v80l-74 -37c-60 -24 -105 -42 -137 -52z" />
    <glyph glyph-name="threequarters" unicode="&#xbe;" horiz-adv-x="1302" 
d="M274 375c-76 0 -146 7 -208 19l2 76c54 -10 127 -18 207 -18c111 0 130 6 130 27c0 18 -11 24 -53 24h-217v69h215c42 0 53 7 53 24s-20 23 -126 23c-83 0 -149 -8 -200 -17l-1 75c63 13 140 19 215 19c158 0 214 -31 214 -91c0 -30 -15 -52 -44 -66
c31 -16 46 -40 46 -70c0 -63 -49 -94 -233 -94zM380 0h-176l726 682h177zM1177 0h-107v49h-338v73l338 183h107v-177h79v-79h-79v-49zM860 119v-2c43 7 109 11 151 11h59v80l-73 -37c-61 -24 -106 -42 -137 -52z" />
    <glyph glyph-name="plus" unicode="+" horiz-adv-x="755" 
d="M301 116v138h-243v145h243v138h152v-138h244v-145h-244v-138h-152z" />
    <glyph glyph-name="minus" unicode="&#x2212;" horiz-adv-x="755" 
d="M697 258h-639v145h639v-145z" />
    <glyph glyph-name="multiply" unicode="&#xd7;" horiz-adv-x="740" 
d="M703 218l-71 -124l-263 155l-262 -155l-70 124l197 109l-197 110l70 124l263 -156l262 156l71 -124l-198 -110z" />
    <glyph glyph-name="divide" unicode="&#xf7;" horiz-adv-x="712" 
d="M451 675v-200h-196v200h196zM675 258h-638v145h638v-145zM451 185v-200h-196v200h196z" />
    <glyph glyph-name="equal" unicode="=" horiz-adv-x="748" 
d="M704 372h-660v144h660v-144zM704 137h-660v145h660v-145z" />
    <glyph glyph-name="logicalnot" unicode="&#xac;" horiz-adv-x="712" 
d="M490 146v170h-453v159h638v-329h-185z" />
    <glyph glyph-name="asciitilde" unicode="~" horiz-adv-x="773" 
d="M538 233c-113 0 -181 48 -302 48c-51 0 -104 -18 -159 -49l-47 122c59 50 121 77 204 77c110 0 188 -48 302 -48c52 0 104 19 159 50l48 -122c-58 -50 -122 -78 -205 -78z" />
    <glyph glyph-name="less" unicode="&#x3c;" horiz-adv-x="727" 
d="M683 54l-639 174v203l639 174v-169l-467 -106l467 -107v-169z" />
    <glyph glyph-name="greater" unicode="&#x3e;" horiz-adv-x="727" 
d="M44 605l639 -174v-203l-639 -174v169l467 107l-467 106v169z" />
    <glyph glyph-name="plusminus" unicode="&#xb1;" horiz-adv-x="755" 
d="M697 45h-639v145h243v127h-243v145h243v138h152v-138h244v-145h-244v-127h244v-145z" />
    <glyph glyph-name="asciicircum" unicode="^" horiz-adv-x="741" 
d="M256 652h230l208 -481h-194l-129 326l-130 -326h-194z" />
    <glyph glyph-name="notequal" unicode="&#x2260;" horiz-adv-x="748" 
d="M704 137h-377l-47 -83h-119l47 83h-164v145h245l51 90h-296v144h377l47 83h118l-47 -83h165v-144h-245l-51 -90h296v-145z" />
    <glyph glyph-name="approxequal" unicode="&#x2248;" horiz-adv-x="760" 
d="M232 408c-56 0 -107 -11 -170 -48l-4 146c51 33 110 52 180 52c110 0 175 -59 295 -59c56 0 107 21 165 58l4 -139c-48 -35 -102 -62 -169 -62c-131 0 -190 52 -301 52zM232 183c-56 0 -107 -20 -170 -62l-4 146c51 33 110 59 180 59c110 0 182 -51 302 -51
c56 0 93 13 158 50l4 -146c-48 -35 -95 -55 -162 -55c-131 0 -182 59 -308 59z" />
    <glyph glyph-name="lessequal" unicode="&#x2264;" horiz-adv-x="727" 
d="M683 155l-639 138v202l639 139v-162l-490 -77l490 -78v-162zM683 6h-639v145h639v-145z" />
    <glyph glyph-name="greaterequal" unicode="&#x2265;" horiz-adv-x="727" 
d="M683 495v-202l-639 -138v162l490 78l-490 77v162zM683 151v-145h-639v145h639z" />
    <glyph glyph-name="infinity" unicode="&#x221e;" horiz-adv-x="990" 
d="M245 100c-121 0 -208 72 -208 211c0 140 93 211 210 211c110 0 184 -59 248 -124c65 64 140 124 247 124c118 0 211 -71 211 -211c0 -139 -87 -211 -208 -211c-113 0 -190 54 -251 115c-63 -61 -140 -115 -249 -115zM724 393c-53 0 -97 -38 -143 -86
c45 -43 90 -76 150 -76c49 0 81 24 81 81c0 56 -35 81 -88 81zM259 231c56 0 102 33 148 77c-45 47 -87 84 -142 84c-52 0 -87 -25 -87 -81c0 -57 32 -80 81 -80z" />
    <glyph glyph-name="lozenge" unicode="&#x25ca;" horiz-adv-x="813" 
d="M785 393v-134l-312 -259h-132l-313 259v134l313 259h132zM407 506l-213 -180l213 -180l212 180z" />
    <glyph glyph-name="radical" unicode="&#x221a;" 
d="M855 679l-363 -679h-193l-117 229h-156v153h257l111 -220l275 517h186z" />
    <glyph glyph-name="integral" unicode="&#x222b;" horiz-adv-x="833" 
d="M666 617c-115 0 -155 -32 -155 -126v-485c0 -188 -131 -266 -353 -266c-84 0 -161 13 -220 23l36 140c57 -8 114 -17 193 -17c115 0 155 32 155 127v485c0 188 131 266 353 266c84 0 161 -13 220 -23l-36 -140c-57 8 -114 16 -193 16z" />
    <glyph glyph-name="partialdiff" unicode="&#x2202;" horiz-adv-x="975" 
d="M925 359c0 -246 -187 -369 -476 -369c-258 0 -406 71 -406 254c0 169 141 221 342 221c144 0 264 -33 352 -70c-10 115 -97 176 -290 176c-76 0 -149 -11 -223 -27l-28 164c82 20 177 33 277 33c348 0 452 -173 452 -382zM231 255c0 -77 54 -109 219 -109
c166 0 261 47 283 165c-94 25 -221 47 -330 47c-115 0 -172 -28 -172 -103z" />
    <glyph glyph-name="product" unicode="&#x220f;" horiz-adv-x="1241" 
d="M356 0h-203v500h-123v174h1182v-174h-131v-500h-203v500h-522v-500z" />
    <glyph glyph-name="pi" unicode="&#x3c0;" horiz-adv-x="1169" 
d="M363 0h-188v358h-133v152h1061v-152h-140v-150c0 -49 21 -69 76 -69c28 0 52 3 65 5l15 -146c-25 -5 -68 -11 -119 -11c-158 0 -225 57 -225 202v169h-412v-358z" />
    <glyph glyph-name="summation" unicode="&#x2211;" horiz-adv-x="1033" 
d="M992 -21v-159h-948v207l622 236l-622 191v228h948v-159h-721l541 -191v-141l-535 -212h715z" />
    <glyph glyph-name="AEacute" unicode="&#x1fc;" horiz-adv-x="1795" 
d="M1051 879h234l-185 -151h-181zM255 0h-267l774 682h989v-159h-675v-113h655l1 -131h-655v-120h674v-159h-877v132h-467zM874 540l-308 -267h308v267z" />
    <glyph glyph-name="Etilde" unicode="&#x1ebc;" horiz-adv-x="1008" 
d="M353 731v105c25 15 63 31 106 31c82 0 148 -31 211 -31c41 0 64 13 92 30v-109c-20 -14 -48 -29 -89 -29c-73 0 -145 33 -217 33c-45 0 -74 -13 -103 -30zM964 0h-910v682h910v-159h-707v-113h688v-131h-688v-120h707v-159z" />
    <glyph glyph-name="Scommaaccent" unicode="&#x218;" horiz-adv-x="1012" 
d="M974 194c0 -144 -98 -207 -435 -207c-170 0 -367 24 -490 54l29 163c140 -31 310 -58 515 -58c160 0 189 13 189 54c0 42 -25 47 -78 52l-377 22c-212 10 -289 78 -289 205c0 153 134 215 450 215c121 0 318 -19 453 -48l-33 -153c-116 23 -296 42 -467 42
c-184 0 -211 -10 -211 -51c0 -38 26 -44 88 -48l372 -22c196 -11 284 -79 284 -220zM393 -67h189l-135 -152h-151z" />
    <glyph glyph-name="Tcedilla" unicode="&#x162;" horiz-adv-x="1054" 
d="M426 508h-405v174h1012v-174h-404v-508h-203v508zM499 -41h114v-33c0 -101 -38 -140 -155 -140c-48 0 -104 9 -135 18l23 98c30 -6 69 -12 99 -12c37 0 54 8 54 44v25z" />
    <glyph glyph-name="Tcommaaccent" unicode="&#x21a;" horiz-adv-x="1054" 
d="M426 508h-405v174h1012v-174h-404v-508h-203v508zM427 -57h190l-136 -152h-151z" />
    <glyph glyph-name="Ytilde" unicode="&#x1ef8;" horiz-adv-x="1131" 
d="M367 731v105c25 15 63 31 106 31c82 0 148 -31 211 -31c41 0 64 13 92 30v-109c-19 -14 -48 -29 -89 -29c-73 0 -144 33 -217 33c-45 0 -74 -13 -103 -30zM463 253l-462 429h260l306 -276l306 276h256l-463 -430v-252h-203v253z" />
    <glyph glyph-name="aeacute" unicode="&#x1fd;" horiz-adv-x="1496" 
d="M801 744h234l-196 -152h-181zM1089 135c152 0 262 16 323 26l38 -136c-96 -24 -247 -39 -378 -39c-185 0 -303 32 -365 105c-94 -55 -236 -105 -409 -105c-164 0 -258 45 -258 155c0 115 105 158 333 158h278c-15 48 -71 69 -243 69c-119 0 -233 -16 -305 -32l-27 152
c89 19 228 35 355 35c160 0 261 -21 321 -68c68 47 172 68 308 68c243 0 402 -63 402 -229c0 -24 -3 -69 -5 -82h-614c17 -63 81 -77 246 -77zM1053 397c-140 0 -196 -21 -211 -87h433c-11 61 -61 87 -222 87zM221 160c0 -33 25 -42 105 -42c154 0 246 32 336 70
c-1 5 -2 9 -2 14l-326 -2c-81 0 -113 -6 -113 -40z" />
    <glyph glyph-name="etilde" unicode="&#x1ebd;" 
d="M238 596v105c24 14 63 31 105 31c82 0 149 -32 212 -32c41 0 63 14 92 30v-109c-20 -14 -48 -28 -90 -28c-73 0 -144 33 -216 33c-46 0 -75 -13 -103 -30zM467 135c152 0 262 16 323 26l38 -136c-95 -24 -247 -39 -378 -39c-290 0 -416 79 -416 269
c0 189 142 268 404 268c243 0 402 -63 402 -229c0 -24 -3 -69 -5 -82h-614c17 -63 81 -77 246 -77zM431 397c-140 0 -196 -21 -211 -87h433c-11 61 -61 87 -222 87z" />
    <glyph glyph-name="scommaaccent" unicode="&#x219;" horiz-adv-x="821" 
d="M798 145c0 -125 -113 -159 -363 -159c-155 0 -311 24 -391 44l32 122c89 -19 239 -40 393 -40c118 0 153 6 153 34c0 30 -28 34 -105 39l-249 14c-172 9 -234 56 -234 167c0 130 134 159 380 159c118 0 273 -20 352 -33l-28 -123c-105 19 -241 33 -368 33
c-126 0 -160 -6 -160 -34c0 -29 26 -32 78 -35l249 -15c171 -10 261 -51 261 -173zM296 -57h189l-136 -152h-151z" />
    <glyph glyph-name="tcedilla" unicode="&#x163;" horiz-adv-x="758" 
d="M118 240v118h-109v152h114l33 132h152v-132h398v-152h-398v-98c0 -89 36 -114 156 -114c97 0 172 14 247 29l36 -150c-81 -20 -189 -39 -300 -39c-217 0 -329 67 -329 254zM398 -41h114v-33c0 -101 -38 -140 -156 -140c-47 0 -103 9 -134 18l22 98c31 -6 70 -12 100 -12
c37 0 54 8 54 44v25z" />
    <glyph glyph-name="tcommaaccent" unicode="&#x21b;" horiz-adv-x="758" 
d="M118 240v118h-109v152h114l33 132h152v-132h398v-152h-398v-98c0 -89 36 -114 156 -114c97 0 172 14 247 29l36 -150c-81 -20 -189 -39 -300 -39c-217 0 -329 67 -329 254zM311 -57h189l-135 -152h-151z" />
    <glyph glyph-name="ytilde" unicode="&#x1ef9;" horiz-adv-x="925" 
d="M270 596v105c25 14 63 31 106 31c82 0 149 -32 212 -32c40 0 63 14 92 30v-109c-20 -14 -48 -28 -90 -28c-73 0 -144 33 -216 33c-46 0 -75 -13 -104 -30zM42 298v212h188v-183c0 -84 41 -115 182 -115c84 0 174 9 270 27v271h189v-397c0 -232 -130 -308 -417 -308
c-129 0 -273 19 -374 47l33 144c118 -29 234 -45 354 -45c173 0 232 41 224 153l-2 5c-96 -28 -209 -52 -322 -52c-238 0 -325 73 -325 241z" />
    <glyph glyph-name="softhyphen" unicode="&#xad;" horiz-adv-x="533" 
d="M495 193h-457v148h457v-148z" />
    <glyph glyph-name="divisionslash" unicode="&#x2215;" horiz-adv-x="453" 
d="M-49 0h-176l726 682h177z" />
    <glyph glyph-name="litre" unicode="&#x2113;" horiz-adv-x="671" 
d="M470 350l-257 -122c4 -50 33 -67 111 -67c70 0 140 13 177 23l31 -166c-48 -16 -125 -31 -211 -31c-202 0 -297 77 -297 251v139c0 179 89 310 333 310c170 0 238 -63 238 -161c0 -82 -47 -140 -125 -176zM212 400v-73l154 73c42 20 61 39 61 68c0 35 -19 54 -82 54
c-90 0 -133 -40 -133 -122z" />
    <glyph glyph-name="commaaccentcomb.alt" horiz-adv-x="378" 
d="M292 591h-232l150 151h180z" />
    <glyph glyph-name="dieresis.case" horiz-adv-x="515" 
d="M209 895v-156h-165v156h165zM471 895v-156h-166v156h166z" />
    <glyph glyph-name="dotaccent.case" horiz-adv-x="299" 
d="M244 891v-156h-189v156h189z" />
    <glyph glyph-name="grave.case" horiz-adv-x="479" 
d="M178 739l-184 152h233l132 -152h-181z" />
    <glyph glyph-name="acute.case" horiz-adv-x="479" 
d="M252 891h234l-185 -152h-181z" />
    <glyph glyph-name="hungarumlaut.case" horiz-adv-x="659" 
d="M148 891h196l-154 -152h-146zM419 891h196l-175 -152h-146z" />
    <glyph glyph-name="circumflex.case" horiz-adv-x="500" 
d="M501 739h-170l-81 70l-81 -70h-170l165 153h171z" />
    <glyph glyph-name="caron.case" horiz-adv-x="500" 
d="M501 892l-166 -153h-171l-165 153h170l81 -70l81 70h170z" />
    <glyph glyph-name="breve.case" horiz-adv-x="525" 
d="M342 899h139c0 -104 -65 -161 -218 -161s-219 57 -219 161h139c0 -46 19 -66 80 -66s79 20 79 66z" />
    <glyph glyph-name="ring.case" horiz-adv-x="397" 
d="M199 736c-106 0 -155 37 -155 113c0 71 49 108 155 108s154 -37 154 -108c0 -76 -48 -113 -154 -113zM130 848c0 -28 14 -42 69 -42c56 0 68 14 68 42c0 26 -12 39 -68 39c-55 0 -69 -13 -69 -39z" />
    <glyph glyph-name="tilde.case" horiz-adv-x="497" 
d="M44 742v105c25 15 63 31 106 31c82 0 148 -31 211 -31c41 0 64 13 92 30v-109c-20 -14 -48 -28 -89 -28c-73 0 -145 32 -217 32c-45 0 -74 -13 -103 -30z" />
    <glyph glyph-name="macron.case" horiz-adv-x="498" 
d="M454 759h-410v115h410v-115z" />
    <glyph glyph-name="cedilla.case" horiz-adv-x="378" 
d="M205 -41h114v-33c0 -101 -38 -140 -156 -140c-47 0 -103 9 -134 18l22 98c31 -6 70 -12 100 -12c37 0 54 8 54 44v25z" />
    <glyph glyph-name="ogonek.case" horiz-adv-x="359" 
d="M170 3h100c-51 -24 -116 -63 -116 -95c0 -15 13 -20 29 -20c28 0 72 12 105 26l27 -87c-42 -22 -92 -39 -156 -39c-76 0 -115 29 -115 83c0 53 63 110 126 132z" />
    <glyph glyph-name="ITF" horiz-adv-x="1667" 
d="M74 0v700h216v-700h-216zM335 496v204h216v-204h-216zM595 0v700h217v-700h-217zM856 496v204h216v-204h-216zM1116 0v700h217v-700h-217zM1377 496v204h216v-204h-216zM1377 247v205h216v-205h-216z" />
    </font>
</defs>
</svg>
